{
  "accessors": [
    {
      "name": "pipe_entrence-Mesh_0_positions",
      "componentType": 5126,
      "count": 364,
      "min": [
        0.25,
        0.2552570104598999,
        -0.003848999971523881
      ],
      "max": [
        0.75,
        0.7552570104598999,
        0.09615100175142288
      ],
      "type": "VEC3",
      "bufferView": 0,
      "byteOffset": 0
    },
    {
      "name": "pipe_entrence-Mesh_0_normals",
      "componentType": 5126,
      "count": 364,
      "min": [
        -1,
        -1,
        -1
      ],
      "max": [
        1,
        1,
        1
      ],
      "type": "VEC3",
      "bufferView": 1,
      "byteOffset": 0
    },
    {
      "name": "pipe_entrence-Mesh_0_texcoords",
      "componentType": 5126,
      "count": 364,
      "min": [
        0,
        0
      ],
      "max": [
        1,
        1
      ],
      "type": "VEC2",
      "bufferView": 2,
      "byteOffset": 0
    },
    {
      "name": "pipe_entrence-Mesh_0_indices",
      "componentType": 5123,
      "count": 1056,
      "min": [
        0
      ],
      "max": [
        363
      ],
      "type": "SCALAR",
      "bufferView": 3,
      "byteOffset": 0
    },
    {
      "name": "pipe_exit-Mesh_0_positions",
      "componentType": 5126,
      "count": 364,
      "min": [
        0.25184500217437744,
        0.9008150100708008,
        0.24929599463939667
      ],
      "max": [
        0.7526469826698303,
        1.004986047744751,
        0.7492809891700745
      ],
      "type": "VEC3",
      "bufferView": 0,
      "byteOffset": 4368
    },
    {
      "name": "pipe_exit-Mesh_0_normals",
      "componentType": 5126,
      "count": 364,
      "min": [
        -0.9999343156814575,
        -0.9999655485153198,
        -0.9999687671661377
      ],
      "max": [
        0.9999343156814575,
        0.9999655485153198,
        0.9999687671661377
      ],
      "type": "VEC3",
      "bufferView": 1,
      "byteOffset": 4368
    },
    {
      "name": "pipe_exit-Mesh_0_texcoords",
      "componentType": 5126,
      "count": 364,
      "min": [
        0,
        0
      ],
      "max": [
        1,
        1
      ],
      "type": "VEC2",
      "bufferView": 2,
      "byteOffset": 2912
    },
    {
      "name": "pipe_exit-Mesh_0_indices",
      "componentType": 5123,
      "count": 1056,
      "min": [
        0
      ],
      "max": [
        363
      ],
      "type": "SCALAR",
      "bufferView": 3,
      "byteOffset": 2112
    },
    {
      "name": "cylinder-Mesh_0_positions",
      "componentType": 5126,
      "count": 1071,
      "min": [
        0.2750000059604645,
        0.28076300024986267,
        0.08353099972009659
      ],
      "max": [
        0.7250000238418579,
        0.9076499938964844,
        0.7221459746360779
      ],
      "type": "VEC3",
      "bufferView": 0,
      "byteOffset": 8736
    },
    {
      "name": "cylinder-Mesh_0_normals",
      "componentType": 5126,
      "count": 1071,
      "min": [
        -1,
        -0.9999755024909973,
        -1
      ],
      "max": [
        1,
        1,
        1
      ],
      "type": "VEC3",
      "bufferView": 1,
      "byteOffset": 8736
    },
    {
      "name": "cylinder-Mesh_0_texcoords",
      "componentType": 5126,
      "count": 1071,
      "min": [
        0,
        0
      ],
      "max": [
        1,
        0.9900000095367432
      ],
      "type": "VEC2",
      "bufferView": 2,
      "byteOffset": 5824
    },
    {
      "name": "cylinder-Mesh_0_indices",
      "componentType": 5123,
      "count": 5382,
      "min": [
        0
      ],
      "max": [
        1070
      ],
      "type": "SCALAR",
      "bufferView": 3,
      "byteOffset": 4224
    }
  ],
  "asset": {
    "generator": "obj2gltf",
    "version": "2.0"
  },
  "buffers": [
    {
      "name": "pipe_curved_material",
      "byteLength": 72556,
      "uri": "data:application/octet-stream;base64,"
    }
  ],
  "bufferViews": [
    {
      "name": "bufferView_0",
      "buffer": 0,
      "byteLength": 21588,
      "byteOffset": 0,
      "byteStride": 12,
      "target": 34962
    },
    {
      "name": "bufferView_1",
      "buffer": 0,
      "byteLength": 21588,
      "byteOffset": 21588,
      "byteStride": 12,
      "target": 34962
    },
    {
      "name": "bufferView_2",
      "buffer": 0,
      "byteLength": 14392,
      "byteOffset": 43176,
      "byteStride": 8,
      "target": 34962
    },
    {
      "name": "bufferView_3",
      "buffer": 0,
      "byteLength": 14988,
      "byteOffset": 57568,
      "target": 34963
    }
  ],
  "materials": [
    {
      "name": "default",
      "pbrMetallicRoughness": {
        "baseColorFactor": [
          0.5,
          0.5,
          0.5,
          1
        ],
        "metallicFactor": 0,
        "roughnessFactor": 1
      },
      "emissiveFactor": [
        0,
        0,
        0
      ],
      "alphaMode": "OPAQUE",
      "doubleSided": false
    },
    {
      "name": "Material",
      "pbrMetallicRoughness": {
        "baseColorFactor": [
          0.8,
          0.8,
          0.8,
          0.2
        ],
        "metallicFactor": 0,
        "roughnessFactor": 1
      },
      "emissiveFactor": [
        0,
        0,
        0
      ],
      "alphaMode": "BLEND",
      "doubleSided": true
    }
  ],
  "meshes": [
    {
      "name": "pipe_entrence-Mesh",
      "primitives": [
        {
          "attributes": {
            "POSITION": 0,
            "NORMAL": 1,
            "TEXCOORD_0": 2
          },
          "indices": 3,
          "material": 0,
          "mode": 4
        }
      ]
    },
    {
      "name": "pipe_exit-Mesh",
      "primitives": [
        {
          "attributes": {
            "POSITION": 4,
            "NORMAL": 5,
            "TEXCOORD_0": 6
          },
          "indices": 7,
          "material": 0,
          "mode": 4
        }
      ]
    },
    {
      "name": "cylinder-Mesh",
      "primitives": [
        {
          "attributes": {
            "POSITION": 8,
            "NORMAL": 9,
            "TEXCOORD_0": 10
          },
          "indices": 11,
          "material": 1,
          "mode": 4
        }
      ]
    }
  ],
  "nodes": [
    {
      "name": "pipe_entrence",
      "mesh": 0
    },
    {
      "name": "pipe_exit",
      "mesh": 1
    },
    {
      "name": "cylinder",
      "mesh": 2
    }
  ],
  "scene": 0,
  "scenes": [
    {
      "nodes": [
        0,
        1,
        2
      ]
    }
  ]
}
