{
  "accessors": [
    {
      "name": "cylinder-Mesh_0_positions",
      "componentType": 5126,
      "count": 1054,
      "min": [
        0.2681710124015808,
        0.2807619869709015,
        0.27265501022338867
      ],
      "max": [
        0.9067860245704651,
        0.9079639911651611,
        0.7232180237770081
      ],
      "type": "VEC3",
      "bufferView": 0,
      "byteOffset": 0
    },
    {
      "name": "cylinder-Mesh_0_normals",
      "componentType": 5126,
      "count": 1054,
      "min": [
        -1,
        -0.9999745488166809,
        -0.9999995231628418
      ],
      "max": [
        1,
        0.9999990463256836,
        0.9999998807907104
      ],
      "type": "VEC3",
      "bufferView": 1,
      "byteOffset": 0
    },
    {
      "name": "cylinder-Mesh_0_texcoords",
      "componentType": 5126,
      "count": 1054,
      "min": [
        0,
        0
      ],
      "max": [
        1,
        0.9900000095367432
      ],
      "type": "VEC2",
      "bufferView": 2,
      "byteOffset": 0
    },
    {
      "name": "cylinder-Mesh_0_indices",
      "componentType": 5123,
      "count": 5382,
      "min": [
        0
      ],
      "max": [
        1053
      ],
      "type": "SCALAR",
      "bufferView": 3,
      "byteOffset": 0
    },
    {
      "name": "pipe_entrence-Mesh_0_positions",
      "componentType": 5126,
      "count": 364,
      "min": [
        0.8941659927368164,
        0.2552559971809387,
        0.24821899831295013
      ],
      "max": [
        0.9941660165786743,
        0.7552559971809387,
        0.7482179999351501
      ],
      "type": "VEC3",
      "bufferView": 0,
      "byteOffset": 12648
    },
    {
      "name": "pipe_entrence-Mesh_0_normals",
      "componentType": 5126,
      "count": 364,
      "min": [
        -1,
        -0.9999990463256836,
        -0.9999990463256836
      ],
      "max": [
        1,
        0.9999990463256836,
        0.9999990463256836
      ],
      "type": "VEC3",
      "bufferView": 1,
      "byteOffset": 12648
    },
    {
      "name": "pipe_entrence-Mesh_0_texcoords",
      "componentType": 5126,
      "count": 364,
      "min": [
        0,
        0
      ],
      "max": [
        1,
        1
      ],
      "type": "VEC2",
      "bufferView": 2,
      "byteOffset": 8432
    },
    {
      "name": "pipe_entrence-Mesh_0_indices",
      "componentType": 5123,
      "count": 1056,
      "min": [
        0
      ],
      "max": [
        363
      ],
      "type": "SCALAR",
      "bufferView": 3,
      "byteOffset": 10764
    },
    {
      "name": "pipe_exit-Mesh_0_positions",
      "componentType": 5126,
      "count": 364,
      "min": [
        0.24103599786758423,
        0.9011669754981995,
        0.2495039999485016
      ],
      "max": [
        0.7410209774971008,
        1.0046379566192627,
        0.7501710057258606
      ],
      "type": "VEC3",
      "bufferView": 0,
      "byteOffset": 17016
    },
    {
      "name": "pipe_exit-Mesh_0_normals",
      "componentType": 5126,
      "count": 364,
      "min": [
        -0.9999687671661377,
        -0.9999762177467346,
        -0.9999449849128723
      ],
      "max": [
        0.9999687671661377,
        0.9999762177467346,
        0.9999449849128723
      ],
      "type": "VEC3",
      "bufferView": 1,
      "byteOffset": 17016
    },
    {
      "name": "pipe_exit-Mesh_0_texcoords",
      "componentType": 5126,
      "count": 364,
      "min": [
        0,
        0
      ],
      "max": [
        1,
        1
      ],
      "type": "VEC2",
      "bufferView": 2,
      "byteOffset": 11344
    },
    {
      "name": "pipe_exit-Mesh_0_indices",
      "componentType": 5123,
      "count": 1056,
      "min": [
        0
      ],
      "max": [
        363
      ],
      "type": "SCALAR",
      "bufferView": 3,
      "byteOffset": 12876
    }
  ],
  "asset": {
    "generator": "obj2gltf",
    "version": "2.0"
  },
  "buffers": [
    {
      "name": "pipe_curved_material",
      "byteLength": 72012,
      "uri": "data:application/octet-stream;base64,"
    }
  ],
  "bufferViews": [
    {
      "name": "bufferView_0",
      "buffer": 0,
      "byteLength": 21384,
      "byteOffset": 0,
      "byteStride": 12,
      "target": 34962
    },
    {
      "name": "bufferView_1",
      "buffer": 0,
      "byteLength": 21384,
      "byteOffset": 21384,
      "byteStride": 12,
      "target": 34962
    },
    {
      "name": "bufferView_2",
      "buffer": 0,
      "byteLength": 14256,
      "byteOffset": 42768,
      "byteStride": 8,
      "target": 34962
    },
    {
      "name": "bufferView_3",
      "buffer": 0,
      "byteLength": 14988,
      "byteOffset": 57024,
      "target": 34963
    }
  ],
  "materials": [
    {
      "name": "Material.007",
      "pbrMetallicRoughness": {
        "baseColorFactor": [
          0.8,
          0.8,
          0.8,
          0.2
        ],
        "metallicFactor": 0,
        "roughnessFactor": 1
      },
      "emissiveFactor": [
        0,
        0,
        0
      ],
      "alphaMode": "BLEND",
      "doubleSided": true
    }
  ],
  "meshes": [
    {
      "name": "cylinder-Mesh",
      "primitives": [
        {
          "attributes": {
            "POSITION": 0,
            "NORMAL": 1,
            "TEXCOORD_0": 2
          },
          "indices": 3,
          "material": 0,
          "mode": 4
        }
      ]
    },
    {
      "name": "pipe_entrence-Mesh",
      "primitives": [
        {
          "attributes": {
            "POSITION": 4,
            "NORMAL": 5,
            "TEXCOORD_0": 6
          },
          "indices": 7,
          "material": 0,
          "mode": 4
        }
      ]
    },
    {
      "name": "pipe_exit-Mesh",
      "primitives": [
        {
          "attributes": {
            "POSITION": 8,
            "NORMAL": 9,
            "TEXCOORD_0": 10
          },
          "indices": 11,
          "material": 0,
          "mode": 4
        }
      ]
    }
  ],
  "nodes": [
    {
      "name": "cylinder",
      "mesh": 0
    },
    {
      "name": "pipe_entrence",
      "mesh": 1
    },
    {
      "name": "pipe_exit",
      "mesh": 2
    }
  ],
  "scene": 0,
  "scenes": [
    {
      "nodes": [
        0,
        1,
        2
      ]
    }
  ]
}
