{
  "accessors": [
    {
      "name": "Barrel_Metal-Mesh_0_positions",
      "componentType": 5126,
      "count": 1053,
      "min": [
        0.3499999940395355,
        0.3499999940395355,
        0.19810299575328827
      ],
      "max": [
        0.6499999761581421,
        0.6499999761581421,
        0.49810299277305603
      ],
      "type": "VEC3",
      "bufferView": 0,
      "byteOffset": 0
    },
    {
      "name": "Barrel_Metal-Mesh_0_normals",
      "componentType": 5126,
      "count": 1053,
      "min": [
        -1,
        -1,
        -1
      ],
      "max": [
        1,
        1,
        1
      ],
      "type": "VEC3",
      "bufferView": 1,
      "byteOffset": 0
    },
    {
      "name": "Barrel_Metal-Mesh_0_texcoords",
      "componentType": 5126,
      "count": 1053,
      "min": [
        0.0035099999513477087,
        0.018125999718904495
      ],
      "max": [
        0.997868001461029,
        0.9975219964981079
      ],
      "type": "VEC2",
      "bufferView": 2,
      "byteOffset": 0
    },
    {
      "name": "Barrel_Metal-Mesh_0_indices",
      "componentType": 5123,
      "count": 4494,
      "min": [
        0
      ],
      "max": [
        1052
      ],
      "type": "SCALAR",
      "bufferView": 3,
      "byteOffset": 0
    },
    {
      "name": "Cylinder-Mesh_0_positions",
      "componentType": 5126,
      "count": 240,
      "min": [
        0.36000001430511475,
        0.3594549894332886,
        0.2753469944000244
      ],
      "max": [
        0.6399999856948853,
        0.6405450105667114,
        0.47687599062919617
      ],
      "type": "VEC3",
      "bufferView": 0,
      "byteOffset": 12636
    },
    {
      "name": "Cylinder-Mesh_0_normals",
      "componentType": 5126,
      "count": 240,
      "min": [
        -0.9969139695167542,
        -0.9968989491462708,
        -0.999984860420227
      ],
      "max": [
        0.9969139695167542,
        0.9968989491462708,
        0.999984860420227
      ],
      "type": "VEC3",
      "bufferView": 1,
      "byteOffset": 12636
    },
    {
      "name": "Cylinder-Mesh_0_texcoords",
      "componentType": 5126,
      "count": 240,
      "min": [
        0,
        0
      ],
      "max": [
        1,
        0.9900000095367432
      ],
      "type": "VEC2",
      "bufferView": 2,
      "byteOffset": 8424
    },
    {
      "name": "Cylinder-Mesh_0_indices",
      "componentType": 5123,
      "count": 468,
      "min": [
        0
      ],
      "max": [
        239
      ],
      "type": "SCALAR",
      "bufferView": 3,
      "byteOffset": 8988
    }
  ],
  "asset": {
    "generator": "obj2gltf",
    "version": "2.0"
  },
  "buffers": [
    {
      "name": "kautschuk",
      "byteLength": 1081268,
      "uri": "data:application/octet-stream;base64,"
    }
  ],
  "bufferViews": [
    {
      "name": "bufferView_0",
      "buffer": 0,
      "byteLength": 15516,
      "byteOffset": 0,
      "byteStride": 12,
      "target": 34962
    },
    {
      "name": "bufferView_1",
      "buffer": 0,
      "byteLength": 15516,
      "byteOffset": 15516,
      "byteStride": 12,
      "target": 34962
    },
    {
      "name": "bufferView_2",
      "buffer": 0,
      "byteLength": 10344,
      "byteOffset": 31032,
      "byteStride": 8,
      "target": 34962
    },
    {
      "name": "bufferView_3",
      "buffer": 0,
      "byteLength": 9924,
      "byteOffset": 41376,
      "target": 34963
    },
    {
      "buffer": 0,
      "byteOffset": 51300,
      "byteLength": 1029967
    }
  ],
  "images": [
    {
      "name": "kautschugImage",
      "mimeType": "image/png",
      "bufferView": 4
    }
  ],
  "materials": [
    {
      "name": "Barrel_Metal",
      "pbrMetallicRoughness": {
        "baseColorTexture": {
          "index": 0
        },
        "baseColorFactor": [
          1,
          1,
          1,
          1
        ],
        "metallicFactor": 0,
        "roughnessFactor": 0.391600037
      },
      "emissiveFactor": [
        0,
        0,
        0
      ],
      "alphaMode": "OPAQUE",
      "doubleSided": true
    },
    {
      "name": "Material.001",
      "pbrMetallicRoughness": {
        "baseColorFactor": [
          1,
          1,
          1,
          1
        ],
        "metallicFactor": 0,
        "roughnessFactor": 0.06262402299999992
      },
      "emissiveFactor": [
        0,
        0,
        0
      ],
      "alphaMode": "OPAQUE",
      "doubleSided": false
    }
  ],
  "meshes": [
    {
      "name": "Barrel_Metal-Mesh",
      "primitives": [
        {
          "attributes": {
            "POSITION": 0,
            "NORMAL": 1,
            "TEXCOORD_0": 2
          },
          "indices": 3,
          "material": 0,
          "mode": 4
        }
      ]
    },
    {
      "name": "Cylinder-Mesh",
      "primitives": [
        {
          "attributes": {
            "POSITION": 4,
            "NORMAL": 5,
            "TEXCOORD_0": 6
          },
          "indices": 7,
          "material": 1,
          "mode": 4
        }
      ]
    }
  ],
  "nodes": [
    {
      "name": "Barrel_Metal",
      "mesh": 0
    },
    {
      "name": "Cylinder",
      "mesh": 1
    }
  ],
  "samplers": [
    {
      "wrapS": 10497,
      "wrapT": 10497
    }
  ],
  "scene": 0,
  "scenes": [
    {
      "nodes": [
        0,
        1
      ]
    }
  ],
  "textures": [
    {
      "name": "kautschugImage",
      "sampler": 0,
      "source": 0
    }
  ]
}
