{
  "accessors": [
    {
      "name": "Crate-Mesh_0_positions",
      "componentType": 5126,
      "count": 1606,
      "min": [
        0.34993499517440796,
        0.3499999940395355,
        0.16390100121498108
      ],
      "max": [
        0.650065004825592,
        0.6499999761581421,
        0.46403199434280396
      ],
      "type": "VEC3",
      "bufferView": 0,
      "byteOffset": 0
    },
    {
      "name": "Crate-Mesh_0_normals",
      "componentType": 5126,
      "count": 1606,
      "min": [
        -0.9999999403953552,
        -1,
        -0.9999999403953552
      ],
      "max": [
        0.9999999403953552,
        1,
        0.9999999403953552
      ],
      "type": "VEC3",
      "bufferView": 1,
      "byteOffset": 0
    },
    {
      "name": "Crate-Mesh_0_texcoords",
      "componentType": 5126,
      "count": 1606,
      "min": [
        -1.4421370029449463,
        -1.4421370029449463
      ],
      "max": [
        2.4421370029449463,
        2.965946912765503
      ],
      "type": "VEC2",
      "bufferView": 2,
      "byteOffset": 0
    },
    {
      "name": "Crate-Mesh_0_indices",
      "componentType": 5123,
      "count": 4728,
      "min": [
        0
      ],
      "max": [
        1605
      ],
      "type": "SCALAR",
      "bufferView": 3,
      "byteOffset": 0
    },
    {
      "name": "Cube-Mesh_0_positions",
      "componentType": 5126,
      "count": 11221,
      "min": [
        0.35749199986457825,
        0.35740798711776733,
        0.35637301206588745
      ],
      "max": [
        0.6472820043563843,
        0.6499009728431702,
        0.5455600023269653
      ],
      "type": "VEC3",
      "bufferView": 0,
      "byteOffset": 19272
    },
    {
      "name": "Cube-Mesh_0_normals",
      "componentType": 5126,
      "count": 11221,
      "min": [
        -1,
        -1,
        -1
      ],
      "max": [
        1,
        1,
        0.9983032941818237
      ],
      "type": "VEC3",
      "bufferView": 1,
      "byteOffset": 19272
    },
    {
      "name": "Cube-Mesh_0_texcoords",
      "componentType": 5126,
      "count": 11221,
      "min": [
        0.125,
        0
      ],
      "max": [
        0.875,
        1
      ],
      "type": "VEC2",
      "bufferView": 2,
      "byteOffset": 12848
    },
    {
      "name": "Cube-Mesh_0_indices",
      "componentType": 5123,
      "count": 24576,
      "min": [
        0
      ],
      "max": [
        11220
      ],
      "type": "SCALAR",
      "bufferView": 3,
      "byteOffset": 9456
    }
  ],
  "asset": {
    "generator": "obj2gltf",
    "version": "2.0"
  },
  "buffers": [
    {
      "name": "sand",
      "byteLength": 469072,
      "uri": "data:application/octet-stream;base64,"
    }
  ],
  "bufferViews": [
    {
      "name": "bufferView_0",
      "buffer": 0,
      "byteLength": 153924,
      "byteOffset": 0,
      "byteStride": 12,
      "target": 34962
    },
    {
      "name": "bufferView_1",
      "buffer": 0,
      "byteLength": 153924,
      "byteOffset": 153924,
      "byteStride": 12,
      "target": 34962
    },
    {
      "name": "bufferView_2",
      "buffer": 0,
      "byteLength": 102616,
      "byteOffset": 307848,
      "byteStride": 8,
      "target": 34962
    },
    {
      "name": "bufferView_3",
      "buffer": 0,
      "byteLength": 58608,
      "byteOffset": 410464,
      "target": 34963
    }
  ],
  "materials": [
    {
      "name": "Material",
      "pbrMetallicRoughness": {
        "baseColorFactor": [
          0.8,
          0.288709,
          0.024927,
          1
        ],
        "metallicFactor": 0,
        "roughnessFactor": 0.75
      },
      "emissiveFactor": [
        0,
        0,
        0
      ],
      "alphaMode": "OPAQUE",
      "doubleSided": true
    },
    {
      "name": "Material.001",
      "pbrMetallicRoughness": {
        "baseColorFactor": [
          0.799999,
          0.435376,
          0.028459,
          1
        ],
        "metallicFactor": 0,
        "roughnessFactor": 0.75
      },
      "emissiveFactor": [
        0,
        0,
        0
      ],
      "alphaMode": "OPAQUE",
      "doubleSided": false
    }
  ],
  "meshes": [
    {
      "name": "Crate-Mesh",
      "primitives": [
        {
          "attributes": {
            "POSITION": 0,
            "NORMAL": 1,
            "TEXCOORD_0": 2
          },
          "indices": 3,
          "material": 0,
          "mode": 4
        }
      ]
    },
    {
      "name": "Cube-Mesh",
      "primitives": [
        {
          "attributes": {
            "POSITION": 4,
            "NORMAL": 5,
            "TEXCOORD_0": 6
          },
          "indices": 7,
          "material": 1,
          "mode": 4
        }
      ]
    }
  ],
  "nodes": [
    {
      "name": "Crate",
      "mesh": 0
    },
    {
      "name": "Cube",
      "mesh": 1
    }
  ],
  "scene": 0,
  "scenes": [
    {
      "nodes": [
        0,
        1
      ]
    }
  ]
}
