{
  "accessors": [
    {
      "name": "Crate-Mesh_0_positions",
      "componentType": 5126,
      "count": 1766,
      "min": [
        0.34993499517440796,
        0.3499999940395355,
        0.16993500292301178
      ],
      "max": [
        0.650065004825592,
        0.6499999761581421,
        0.47006499767303467
      ],
      "type": "VEC3",
      "bufferView": 0,
      "byteOffset": 0
    },
    {
      "name": "Crate-Mesh_0_normals",
      "componentType": 5126,
      "count": 1766,
      "min": [
        -0.9999999403953552,
        -1,
        -0.9999999403953552
      ],
      "max": [
        0.9999999403953552,
        1,
        0.9999999403953552
      ],
      "type": "VEC3",
      "bufferView": 1,
      "byteOffset": 0
    },
    {
      "name": "Crate-Mesh_0_texcoords",
      "componentType": 5126,
      "count": 1766,
      "min": [
        -1.4421370029449463,
        -1.4421370029449463
      ],
      "max": [
        2.4421370029449463,
        2.965946912765503
      ],
      "type": "VEC2",
      "bufferView": 2,
      "byteOffset": 0
    },
    {
      "name": "Crate-Mesh_0_indices",
      "componentType": 5123,
      "count": 4728,
      "min": [
        0
      ],
      "max": [
        1765
      ],
      "type": "SCALAR",
      "bufferView": 3,
      "byteOffset": 0
    },
    {
      "name": "Cube-Mesh_0_positions",
      "componentType": 5126,
      "count": 12495,
      "min": [
        0.35749199986457825,
        0.35710200667381287,
        0.3682839870452881
      ],
      "max": [
        0.6472820043563843,
        0.6494479775428772,
        0.5582110285758972
      ],
      "type": "VEC3",
      "bufferView": 0,
      "byteOffset": 21192
    },
    {
      "name": "Cube-Mesh_0_normals",
      "componentType": 5126,
      "count": 12495,
      "min": [
        -1,
        -0.9999595284461975,
        -0.9999874830245972
      ],
      "max": [
        1,
        0.9999992847442627,
        0.9986884593963623
      ],
      "type": "VEC3",
      "bufferView": 1,
      "byteOffset": 21192
    },
    {
      "name": "Cube-Mesh_0_texcoords",
      "componentType": 5126,
      "count": 12495,
      "min": [
        0.125,
        0
      ],
      "max": [
        0.875,
        1
      ],
      "type": "VEC2",
      "bufferView": 2,
      "byteOffset": 14128
    },
    {
      "name": "Cube-Mesh_0_indices",
      "componentType": 5123,
      "count": 24576,
      "min": [
        0
      ],
      "max": [
        12494
      ],
      "type": "SCALAR",
      "bufferView": 3,
      "byteOffset": 9456
    }
  ],
  "asset": {
    "generator": "obj2gltf",
    "version": "2.0"
  },
  "buffers": [
    {
      "name": "eisen_staub",
      "byteLength": 514960,
      "uri": "data:application/octet-stream;base64,"
    }
  ],
  "bufferViews": [
    {
      "name": "bufferView_0",
      "buffer": 0,
      "byteLength": 171132,
      "byteOffset": 0,
      "byteStride": 12,
      "target": 34962
    },
    {
      "name": "bufferView_1",
      "buffer": 0,
      "byteLength": 171132,
      "byteOffset": 171132,
      "byteStride": 12,
      "target": 34962
    },
    {
      "name": "bufferView_2",
      "buffer": 0,
      "byteLength": 114088,
      "byteOffset": 342264,
      "byteStride": 8,
      "target": 34962
    },
    {
      "name": "bufferView_3",
      "buffer": 0,
      "byteLength": 58608,
      "byteOffset": 456352,
      "target": 34963
    }
  ],
  "materials": [
    {
      "name": "Material.236",
      "pbrMetallicRoughness": {
        "baseColorFactor": [
          0.8,
          0.288709,
          0.024927,
          1
        ],
        "metallicFactor": 0,
        "roughnessFactor": 0.75
      },
      "emissiveFactor": [
        0,
        0,
        0
      ],
      "alphaMode": "OPAQUE",
      "doubleSided": true
    },
    {
      "name": "Material.237",
      "pbrMetallicRoughness": {
        "baseColorFactor": [
          0.799999,
          0.435376,
          0.028459,
          1
        ],
        "metallicFactor": 0,
        "roughnessFactor": 0.75
      },
      "emissiveFactor": [
        0,
        0,
        0
      ],
      "alphaMode": "OPAQUE",
      "doubleSided": false
    }
  ],
  "meshes": [
    {
      "name": "Crate-Mesh",
      "primitives": [
        {
          "attributes": {
            "POSITION": 0,
            "NORMAL": 1,
            "TEXCOORD_0": 2
          },
          "indices": 3,
          "material": 0,
          "mode": 4
        }
      ]
    },
    {
      "name": "Cube-Mesh",
      "primitives": [
        {
          "attributes": {
            "POSITION": 4,
            "NORMAL": 5,
            "TEXCOORD_0": 6
          },
          "indices": 7,
          "material": 1,
          "mode": 4
        }
      ]
    }
  ],
  "nodes": [
    {
      "name": "Crate",
      "mesh": 0
    },
    {
      "name": "Cube",
      "mesh": 1
    }
  ],
  "scene": 0,
  "scenes": [
    {
      "nodes": [
        0,
        1
      ]
    }
  ]
}
