{
  "accessors": [
    {
      "name": "Crate-Mesh_0_positions",
      "componentType": 5126,
      "count": 1824,
      "min": [
        0.34993499517440796,
        0.35221800208091736,
        0.1814589947462082
      ],
      "max": [
        0.650065004825592,
        0.652347981929779,
        0.48145899176597595
      ],
      "type": "VEC3",
      "bufferView": 0,
      "byteOffset": 0
    },
    {
      "name": "Crate-Mesh_0_normals",
      "componentType": 5126,
      "count": 1824,
      "min": [
        -1,
        -0.9999999403953552,
        -1
      ],
      "max": [
        0.9999999403953552,
        0.9999999403953552,
        1
      ],
      "type": "VEC3",
      "bufferView": 1,
      "byteOffset": 0
    },
    {
      "name": "Crate-Mesh_0_texcoords",
      "componentType": 5126,
      "count": 1824,
      "min": [
        -1.4421370029449463,
        -1.4421370029449463
      ],
      "max": [
        2.4421370029449463,
        2.965946912765503
      ],
      "type": "VEC2",
      "bufferView": 2,
      "byteOffset": 0
    },
    {
      "name": "Crate-Mesh_0_indices",
      "componentType": 5123,
      "count": 4728,
      "min": [
        0
      ],
      "max": [
        1823
      ],
      "type": "SCALAR",
      "bufferView": 3,
      "byteOffset": 0
    },
    {
      "name": "Cube.001-Mesh_0_positions",
      "componentType": 5126,
      "count": 24,
      "min": [
        0.3608649969100952,
        0.36100101470947266,
        0.5020570158958435
      ],
      "max": [
        0.643858015537262,
        0.6439939737319946,
        0.5292220115661621
      ],
      "type": "VEC3",
      "bufferView": 0,
      "byteOffset": 21888
    },
    {
      "name": "Cube.001-Mesh_0_normals",
      "componentType": 5126,
      "count": 24,
      "min": [
        -1,
        -1,
        -1
      ],
      "max": [
        1,
        1,
        1
      ],
      "type": "VEC3",
      "bufferView": 1,
      "byteOffset": 21888
    },
    {
      "name": "Cube.001-Mesh_0_texcoords",
      "componentType": 5126,
      "count": 24,
      "min": [
        0.125,
        0
      ],
      "max": [
        0.875,
        1
      ],
      "type": "VEC2",
      "bufferView": 2,
      "byteOffset": 14592
    },
    {
      "name": "Cube.001-Mesh_0_indices",
      "componentType": 5123,
      "count": 36,
      "min": [
        0
      ],
      "max": [
        23
      ],
      "type": "SCALAR",
      "bufferView": 3,
      "byteOffset": 9456
    },
    {
      "name": "Cube.002-Mesh_0_positions",
      "componentType": 5126,
      "count": 24,
      "min": [
        0.3608649969100952,
        0.36100101470947266,
        0.46985098719596863
      ],
      "max": [
        0.643858015537262,
        0.6439939737319946,
        0.4970160126686096
      ],
      "type": "VEC3",
      "bufferView": 0,
      "byteOffset": 22176
    },
    {
      "name": "Cube.002-Mesh_0_normals",
      "componentType": 5126,
      "count": 24,
      "min": [
        -1,
        -1,
        -1
      ],
      "max": [
        1,
        1,
        1
      ],
      "type": "VEC3",
      "bufferView": 1,
      "byteOffset": 22176
    },
    {
      "name": "Cube.002-Mesh_0_texcoords",
      "componentType": 5126,
      "count": 24,
      "min": [
        0.125,
        0
      ],
      "max": [
        0.875,
        1
      ],
      "type": "VEC2",
      "bufferView": 2,
      "byteOffset": 14784
    },
    {
      "name": "Cube.002-Mesh_0_indices",
      "componentType": 5123,
      "count": 36,
      "min": [
        0
      ],
      "max": [
        23
      ],
      "type": "SCALAR",
      "bufferView": 3,
      "byteOffset": 9528
    },
    {
      "name": "Cube.003-Mesh_0_positions",
      "componentType": 5126,
      "count": 24,
      "min": [
        0.3608649969100952,
        0.36100101470947266,
        0.39285600185394287
      ],
      "max": [
        0.643858015537262,
        0.6439939737319946,
        0.44002100825309753
      ],
      "type": "VEC3",
      "bufferView": 0,
      "byteOffset": 22464
    },
    {
      "name": "Cube.003-Mesh_0_normals",
      "componentType": 5126,
      "count": 24,
      "min": [
        -1,
        -1,
        -1
      ],
      "max": [
        1,
        1,
        1
      ],
      "type": "VEC3",
      "bufferView": 1,
      "byteOffset": 22464
    },
    {
      "name": "Cube.003-Mesh_0_texcoords",
      "componentType": 5126,
      "count": 24,
      "min": [
        0.125,
        0
      ],
      "max": [
        0.875,
        1
      ],
      "type": "VEC2",
      "bufferView": 2,
      "byteOffset": 14976
    },
    {
      "name": "Cube.003-Mesh_0_indices",
      "componentType": 5123,
      "count": 36,
      "min": [
        0
      ],
      "max": [
        23
      ],
      "type": "SCALAR",
      "bufferView": 3,
      "byteOffset": 9600
    }
  ],
  "asset": {
    "generator": "obj2gltf",
    "version": "2.0"
  },
  "buffers": [
    {
      "name": "glas",
      "byteLength": 70344,
      "uri": "data:application/octet-stream;base64,"
    }
  ],
  "bufferViews": [
    {
      "name": "bufferView_0",
      "buffer": 0,
      "byteLength": 22752,
      "byteOffset": 0,
      "byteStride": 12,
      "target": 34962
    },
    {
      "name": "bufferView_1",
      "buffer": 0,
      "byteLength": 22752,
      "byteOffset": 22752,
      "byteStride": 12,
      "target": 34962
    },
    {
      "name": "bufferView_2",
      "buffer": 0,
      "byteLength": 15168,
      "byteOffset": 45504,
      "byteStride": 8,
      "target": 34962
    },
    {
      "name": "bufferView_3",
      "buffer": 0,
      "byteLength": 9672,
      "byteOffset": 60672,
      "target": 34963
    }
  ],
  "materials": [
    {
      "name": "Material.239",
      "pbrMetallicRoughness": {
        "baseColorFactor": [
          0.8,
          0.288709,
          0.024927,
          1
        ],
        "metallicFactor": 0,
        "roughnessFactor": 0.75
      },
      "emissiveFactor": [
        0,
        0,
        0
      ],
      "alphaMode": "OPAQUE",
      "doubleSided": true
    },
    {
      "name": "Material.240",
      "pbrMetallicRoughness": {
        "baseColorFactor": [
          0.8,
          0.8,
          0.8,
          1
        ],
        "metallicFactor": 0,
        "roughnessFactor": 0.11469012499999998
      },
      "emissiveFactor": [
        0,
        0,
        0
      ],
      "alphaMode": "OPAQUE",
      "doubleSided": false
    },
    {
      "name": "Material.241",
      "pbrMetallicRoughness": {
        "baseColorFactor": [
          0.8,
          0.8,
          0.8,
          1
        ],
        "metallicFactor": 0,
        "roughnessFactor": 0.11469012499999998
      },
      "emissiveFactor": [
        0,
        0,
        0
      ],
      "alphaMode": "OPAQUE",
      "doubleSided": false
    },
    {
      "name": "Material.242",
      "pbrMetallicRoughness": {
        "baseColorFactor": [
          0.8,
          0.8,
          0.8,
          1
        ],
        "metallicFactor": 0,
        "roughnessFactor": 0
      },
      "emissiveFactor": [
        0,
        0,
        0
      ],
      "alphaMode": "OPAQUE",
      "doubleSided": false
    }
  ],
  "meshes": [
    {
      "name": "Crate-Mesh",
      "primitives": [
        {
          "attributes": {
            "POSITION": 0,
            "NORMAL": 1,
            "TEXCOORD_0": 2
          },
          "indices": 3,
          "material": 0,
          "mode": 4
        }
      ]
    },
    {
      "name": "Cube.001-Mesh",
      "primitives": [
        {
          "attributes": {
            "POSITION": 4,
            "NORMAL": 5,
            "TEXCOORD_0": 6
          },
          "indices": 7,
          "material": 1,
          "mode": 4
        }
      ]
    },
    {
      "name": "Cube.002-Mesh",
      "primitives": [
        {
          "attributes": {
            "POSITION": 8,
            "NORMAL": 9,
            "TEXCOORD_0": 10
          },
          "indices": 11,
          "material": 2,
          "mode": 4
        }
      ]
    },
    {
      "name": "Cube.003-Mesh",
      "primitives": [
        {
          "attributes": {
            "POSITION": 12,
            "NORMAL": 13,
            "TEXCOORD_0": 14
          },
          "indices": 15,
          "material": 3,
          "mode": 4
        }
      ]
    }
  ],
  "nodes": [
    {
      "name": "Crate",
      "mesh": 0
    },
    {
      "name": "Cube.001",
      "mesh": 1
    },
    {
      "name": "Cube.002",
      "mesh": 2
    },
    {
      "name": "Cube.003",
      "mesh": 3
    }
  ],
  "scene": 0,
  "scenes": [
    {
      "nodes": [
        0,
        1,
        2,
        3
      ]
    }
  ]
}
