{
  "accessors": [
    {
      "name": "Crate-Mesh_0_positions",
      "componentType": 5126,
      "count": 1874,
      "min": [
        0.34993499517440796,
        0.3498150110244751,
        0.16814899444580078
      ],
      "max": [
        0.650065004825592,
        0.6501849889755249,
        0.46838900446891785
      ],
      "type": "VEC3",
      "bufferView": 0,
      "byteOffset": 0
    },
    {
      "name": "Crate-Mesh_0_normals",
      "componentType": 5126,
      "count": 1874,
      "min": [
        -1,
        -0.9999997615814209,
        -0.9999997019767761
      ],
      "max": [
        0.9999999403953552,
        0.9999998807907104,
        0.9999997019767761
      ],
      "type": "VEC3",
      "bufferView": 1,
      "byteOffset": 0
    },
    {
      "name": "Crate-Mesh_0_texcoords",
      "componentType": 5126,
      "count": 1874,
      "min": [
        -1.4421370029449463,
        -1.4421370029449463
      ],
      "max": [
        2.4421370029449463,
        2.965946912765503
      ],
      "type": "VEC2",
      "bufferView": 2,
      "byteOffset": 0
    },
    {
      "name": "Crate-Mesh_0_indices",
      "componentType": 5123,
      "count": 4698,
      "min": [
        0
      ],
      "max": [
        1873
      ],
      "type": "SCALAR",
      "bufferView": 3,
      "byteOffset": 0
    },
    {
      "name": "Cube-Mesh_0_positions",
      "componentType": 5126,
      "count": 24,
      "min": [
        0.53711998462677,
        0.48698800802230835,
        0.2704389989376068
      ],
      "max": [
        0.6285150051116943,
        0.6604740023612976,
        0.5490649938583374
      ],
      "type": "VEC3",
      "bufferView": 0,
      "byteOffset": 22488
    },
    {
      "name": "Cube-Mesh_0_normals",
      "componentType": 5126,
      "count": 24,
      "min": [
        -0.9999567270278931,
        -0.8884829878807068,
        -0.8884388208389282
      ],
      "max": [
        0.9999567270278931,
        0.8884829878807068,
        0.8884598612785339
      ],
      "type": "VEC3",
      "bufferView": 1,
      "byteOffset": 22488
    },
    {
      "name": "Cube-Mesh_0_texcoords",
      "componentType": 5126,
      "count": 24,
      "min": [
        0.125,
        0
      ],
      "max": [
        0.875,
        1
      ],
      "type": "VEC2",
      "bufferView": 2,
      "byteOffset": 14992
    },
    {
      "name": "Cube-Mesh_0_indices",
      "componentType": 5123,
      "count": 36,
      "min": [
        0
      ],
      "max": [
        23
      ],
      "type": "SCALAR",
      "bufferView": 3,
      "byteOffset": 9396
    },
    {
      "name": "Cube.001-Mesh_0_positions",
      "componentType": 5126,
      "count": 24,
      "min": [
        0.36951199173927307,
        0.48698800802230835,
        0.2704389989376068
      ],
      "max": [
        0.4609059989452362,
        0.6604740023612976,
        0.5490649938583374
      ],
      "type": "VEC3",
      "bufferView": 0,
      "byteOffset": 22776
    },
    {
      "name": "Cube.001-Mesh_0_normals",
      "componentType": 5126,
      "count": 24,
      "min": [
        -0.9999567270278931,
        -0.8884829878807068,
        -0.8884388208389282
      ],
      "max": [
        0.9999567270278931,
        0.8884829878807068,
        0.8884598612785339
      ],
      "type": "VEC3",
      "bufferView": 1,
      "byteOffset": 22776
    },
    {
      "name": "Cube.001-Mesh_0_texcoords",
      "componentType": 5126,
      "count": 24,
      "min": [
        0.125,
        0
      ],
      "max": [
        0.875,
        1
      ],
      "type": "VEC2",
      "bufferView": 2,
      "byteOffset": 15184
    },
    {
      "name": "Cube.001-Mesh_0_indices",
      "componentType": 5123,
      "count": 36,
      "min": [
        0
      ],
      "max": [
        23
      ],
      "type": "SCALAR",
      "bufferView": 3,
      "byteOffset": 9468
    },
    {
      "name": "Cube.002-Mesh_0_positions",
      "componentType": 5126,
      "count": 24,
      "min": [
        0.4040440022945404,
        0.4347589910030365,
        0.27438199520111084
      ],
      "max": [
        0.49543899297714233,
        0.6082450151443481,
        0.5530080199241638
      ],
      "type": "VEC3",
      "bufferView": 0,
      "byteOffset": 23064
    },
    {
      "name": "Cube.002-Mesh_0_normals",
      "componentType": 5126,
      "count": 24,
      "min": [
        -0.9999567270278931,
        -0.8884829878807068,
        -0.8884388208389282
      ],
      "max": [
        0.9999567270278931,
        0.8884829878807068,
        0.8884598612785339
      ],
      "type": "VEC3",
      "bufferView": 1,
      "byteOffset": 23064
    },
    {
      "name": "Cube.002-Mesh_0_texcoords",
      "componentType": 5126,
      "count": 24,
      "min": [
        0.125,
        0
      ],
      "max": [
        0.875,
        1
      ],
      "type": "VEC2",
      "bufferView": 2,
      "byteOffset": 15376
    },
    {
      "name": "Cube.002-Mesh_0_indices",
      "componentType": 5123,
      "count": 36,
      "min": [
        0
      ],
      "max": [
        23
      ],
      "type": "SCALAR",
      "bufferView": 3,
      "byteOffset": 9540
    },
    {
      "name": "Cube.003-Mesh_0_positions",
      "componentType": 5126,
      "count": 24,
      "min": [
        0.49712300300598145,
        0.4347589910030365,
        0.27438199520111084
      ],
      "max": [
        0.5885170102119446,
        0.6082450151443481,
        0.5530080199241638
      ],
      "type": "VEC3",
      "bufferView": 0,
      "byteOffset": 23352
    },
    {
      "name": "Cube.003-Mesh_0_normals",
      "componentType": 5126,
      "count": 24,
      "min": [
        -0.9999567270278931,
        -0.8884829878807068,
        -0.8884388208389282
      ],
      "max": [
        0.9999567270278931,
        0.8884829878807068,
        0.8884598612785339
      ],
      "type": "VEC3",
      "bufferView": 1,
      "byteOffset": 23352
    },
    {
      "name": "Cube.003-Mesh_0_texcoords",
      "componentType": 5126,
      "count": 24,
      "min": [
        0.125,
        0
      ],
      "max": [
        0.875,
        1
      ],
      "type": "VEC2",
      "bufferView": 2,
      "byteOffset": 15568
    },
    {
      "name": "Cube.003-Mesh_0_indices",
      "componentType": 5123,
      "count": 36,
      "min": [
        0
      ],
      "max": [
        23
      ],
      "type": "SCALAR",
      "bufferView": 3,
      "byteOffset": 9612
    },
    {
      "name": "Cube.004-Mesh_0_positions",
      "componentType": 5126,
      "count": 24,
      "min": [
        0.526203989982605,
        0.39086198806762695,
        0.27769601345062256
      ],
      "max": [
        0.6175979971885681,
        0.5643479824066162,
        0.5563219785690308
      ],
      "type": "VEC3",
      "bufferView": 0,
      "byteOffset": 23640
    },
    {
      "name": "Cube.004-Mesh_0_normals",
      "componentType": 5126,
      "count": 24,
      "min": [
        -0.9999567270278931,
        -0.8884829878807068,
        -0.8884388208389282
      ],
      "max": [
        0.9999567270278931,
        0.8884829878807068,
        0.8884598612785339
      ],
      "type": "VEC3",
      "bufferView": 1,
      "byteOffset": 23640
    },
    {
      "name": "Cube.004-Mesh_0_texcoords",
      "componentType": 5126,
      "count": 24,
      "min": [
        0.125,
        0
      ],
      "max": [
        0.875,
        1
      ],
      "type": "VEC2",
      "bufferView": 2,
      "byteOffset": 15760
    },
    {
      "name": "Cube.004-Mesh_0_indices",
      "componentType": 5123,
      "count": 36,
      "min": [
        0
      ],
      "max": [
        23
      ],
      "type": "SCALAR",
      "bufferView": 3,
      "byteOffset": 9684
    },
    {
      "name": "Cube.005-Mesh_0_positions",
      "componentType": 5126,
      "count": 24,
      "min": [
        0.36711999773979187,
        0.39086198806762695,
        0.27769601345062256
      ],
      "max": [
        0.458514004945755,
        0.5643479824066162,
        0.5563219785690308
      ],
      "type": "VEC3",
      "bufferView": 0,
      "byteOffset": 23928
    },
    {
      "name": "Cube.005-Mesh_0_normals",
      "componentType": 5126,
      "count": 24,
      "min": [
        -0.9999567270278931,
        -0.8884829878807068,
        -0.8884388208389282
      ],
      "max": [
        0.9999567270278931,
        0.8884829878807068,
        0.8884598612785339
      ],
      "type": "VEC3",
      "bufferView": 1,
      "byteOffset": 23928
    },
    {
      "name": "Cube.005-Mesh_0_texcoords",
      "componentType": 5126,
      "count": 24,
      "min": [
        0.125,
        0
      ],
      "max": [
        0.875,
        1
      ],
      "type": "VEC2",
      "bufferView": 2,
      "byteOffset": 15952
    },
    {
      "name": "Cube.005-Mesh_0_indices",
      "componentType": 5123,
      "count": 36,
      "min": [
        0
      ],
      "max": [
        23
      ],
      "type": "SCALAR",
      "bufferView": 3,
      "byteOffset": 9756
    },
    {
      "name": "Cube.006-Mesh_0_positions",
      "componentType": 5126,
      "count": 24,
      "min": [
        0.3671880066394806,
        0.3594140112400055,
        0.27786698937416077
      ],
      "max": [
        0.4584450125694275,
        0.4902600049972534,
        0.5517849922180176
      ],
      "type": "VEC3",
      "bufferView": 0,
      "byteOffset": 24216
    },
    {
      "name": "Cube.006-Mesh_0_normals",
      "componentType": 5126,
      "count": 24,
      "min": [
        -0.9999564290046692,
        -0.9465646743774414,
        -0.9465296268463135
      ],
      "max": [
        0.9999564290046692,
        0.9465646743774414,
        0.9465296268463135
      ],
      "type": "VEC3",
      "bufferView": 1,
      "byteOffset": 24216
    },
    {
      "name": "Cube.006-Mesh_0_texcoords",
      "componentType": 5126,
      "count": 24,
      "min": [
        0.125,
        0
      ],
      "max": [
        0.875,
        1
      ],
      "type": "VEC2",
      "bufferView": 2,
      "byteOffset": 16144
    },
    {
      "name": "Cube.006-Mesh_0_indices",
      "componentType": 5123,
      "count": 36,
      "min": [
        0
      ],
      "max": [
        23
      ],
      "type": "SCALAR",
      "bufferView": 3,
      "byteOffset": 9828
    },
    {
      "name": "Cube.007-Mesh_0_positions",
      "componentType": 5126,
      "count": 24,
      "min": [
        0.4677700102329254,
        0.36890900135040283,
        0.27648699283599854
      ],
      "max": [
        0.5590270161628723,
        0.4807650148868561,
        0.5531650185585022
      ],
      "type": "VEC3",
      "bufferView": 0,
      "byteOffset": 24504
    },
    {
      "name": "Cube.007-Mesh_0_normals",
      "componentType": 5126,
      "count": 24,
      "min": [
        -0.9999575018882751,
        -0.9683136343955994,
        -0.9682884216308594
      ],
      "max": [
        0.9999575018882751,
        0.9683136343955994,
        0.9682884216308594
      ],
      "type": "VEC3",
      "bufferView": 1,
      "byteOffset": 24504
    },
    {
      "name": "Cube.007-Mesh_0_texcoords",
      "componentType": 5126,
      "count": 24,
      "min": [
        0.125,
        0
      ],
      "max": [
        0.875,
        1
      ],
      "type": "VEC2",
      "bufferView": 2,
      "byteOffset": 16336
    },
    {
      "name": "Cube.007-Mesh_0_indices",
      "componentType": 5123,
      "count": 36,
      "min": [
        0
      ],
      "max": [
        23
      ],
      "type": "SCALAR",
      "bufferView": 3,
      "byteOffset": 9900
    },
    {
      "name": "Cube.008-Mesh_0_positions",
      "componentType": 5126,
      "count": 24,
      "min": [
        0.5076029896736145,
        0.35771700739860535,
        0.310496985912323
      ],
      "max": [
        0.6053209900856018,
        0.42750298976898193,
        0.5164890289306641
      ],
      "type": "VEC3",
      "bufferView": 0,
      "byteOffset": 24792
    },
    {
      "name": "Cube.008-Mesh_0_normals",
      "componentType": 5126,
      "count": 24,
      "min": [
        -0.9989237785339355,
        -0.9927573800086975,
        -0.9923292994499207
      ],
      "max": [
        0.99892657995224,
        0.9927573800086975,
        0.9923332929611206
      ],
      "type": "VEC3",
      "bufferView": 1,
      "byteOffset": 24792
    },
    {
      "name": "Cube.008-Mesh_0_texcoords",
      "componentType": 5126,
      "count": 24,
      "min": [
        0.125,
        0
      ],
      "max": [
        0.875,
        1
      ],
      "type": "VEC2",
      "bufferView": 2,
      "byteOffset": 16528
    },
    {
      "name": "Cube.008-Mesh_0_indices",
      "componentType": 5123,
      "count": 36,
      "min": [
        0
      ],
      "max": [
        23
      ],
      "type": "SCALAR",
      "bufferView": 3,
      "byteOffset": 9972
    }
  ],
  "asset": {
    "generator": "obj2gltf",
    "version": "2.0"
  },
  "buffers": [
    {
      "name": "holzplanke",
      "byteLength": 76924,
      "uri": "data:application/octet-stream;base64,"
    }
  ],
  "bufferViews": [
    {
      "name": "bufferView_0",
      "buffer": 0,
      "byteLength": 25080,
      "byteOffset": 0,
      "byteStride": 12,
      "target": 34962
    },
    {
      "name": "bufferView_1",
      "buffer": 0,
      "byteLength": 25080,
      "byteOffset": 25080,
      "byteStride": 12,
      "target": 34962
    },
    {
      "name": "bufferView_2",
      "buffer": 0,
      "byteLength": 16720,
      "byteOffset": 50160,
      "byteStride": 8,
      "target": 34962
    },
    {
      "name": "bufferView_3",
      "buffer": 0,
      "byteLength": 10044,
      "byteOffset": 66880,
      "target": 34963
    }
  ],
  "materials": [
    {
      "name": "Material.001",
      "pbrMetallicRoughness": {
        "baseColorFactor": [
          0.8,
          0.288709,
          0.024927,
          1
        ],
        "metallicFactor": 0,
        "roughnessFactor": 0.75
      },
      "emissiveFactor": [
        0,
        0,
        0
      ],
      "alphaMode": "OPAQUE",
      "doubleSided": true
    },
    {
      "name": "Material.024",
      "pbrMetallicRoughness": {
        "baseColorFactor": [
          0.1936,
          0.136902,
          0.077073,
          1
        ],
        "metallicFactor": 0,
        "roughnessFactor": 0.75
      },
      "emissiveFactor": [
        0,
        0,
        0
      ],
      "alphaMode": "OPAQUE",
      "doubleSided": false
    },
    {
      "name": "Material.025",
      "pbrMetallicRoughness": {
        "baseColorFactor": [
          0.179052,
          0.125285,
          0.068987,
          1
        ],
        "metallicFactor": 0,
        "roughnessFactor": 0.75
      },
      "emissiveFactor": [
        0,
        0,
        0
      ],
      "alphaMode": "OPAQUE",
      "doubleSided": false
    },
    {
      "name": "Material.023",
      "pbrMetallicRoughness": {
        "baseColorFactor": [
          0.198597,
          0.113694,
          0.055694,
          1
        ],
        "metallicFactor": 0,
        "roughnessFactor": 0.75
      },
      "emissiveFactor": [
        0,
        0,
        0
      ],
      "alphaMode": "OPAQUE",
      "doubleSided": false
    },
    {
      "name": "Material.022",
      "pbrMetallicRoughness": {
        "baseColorFactor": [
          0.17435,
          0.110959,
          0.060944,
          1
        ],
        "metallicFactor": 0,
        "roughnessFactor": 0.75
      },
      "emissiveFactor": [
        0,
        0,
        0
      ],
      "alphaMode": "OPAQUE",
      "doubleSided": false
    },
    {
      "name": "Material.021",
      "pbrMetallicRoughness": {
        "baseColorFactor": [
          0.188677,
          0.115899,
          0.076322,
          1
        ],
        "metallicFactor": 0,
        "roughnessFactor": 0.75
      },
      "emissiveFactor": [
        0,
        0,
        0
      ],
      "alphaMode": "OPAQUE",
      "doubleSided": false
    },
    {
      "name": "Material.020",
      "pbrMetallicRoughness": {
        "baseColorFactor": [
          0.219333,
          0.137021,
          0.071412,
          1
        ],
        "metallicFactor": 0,
        "roughnessFactor": 0.75
      },
      "emissiveFactor": [
        0,
        0,
        0
      ],
      "alphaMode": "OPAQUE",
      "doubleSided": false
    },
    {
      "name": "Material.019",
      "pbrMetallicRoughness": {
        "baseColorFactor": [
          0.183828,
          0.11552,
          0.06091,
          1
        ],
        "metallicFactor": 0,
        "roughnessFactor": 0.75
      },
      "emissiveFactor": [
        0,
        0,
        0
      ],
      "alphaMode": "OPAQUE",
      "doubleSided": false
    },
    {
      "name": "Material.018",
      "pbrMetallicRoughness": {
        "baseColorFactor": [
          0.188677,
          0.119585,
          0.064094,
          1
        ],
        "metallicFactor": 0,
        "roughnessFactor": 0.75
      },
      "emissiveFactor": [
        0,
        0,
        0
      ],
      "alphaMode": "OPAQUE",
      "doubleSided": false
    },
    {
      "name": "Material.017",
      "pbrMetallicRoughness": {
        "baseColorFactor": [
          0.165163,
          0.101125,
          0.046671,
          1
        ],
        "metallicFactor": 0,
        "roughnessFactor": 0.75
      },
      "emissiveFactor": [
        0,
        0,
        0
      ],
      "alphaMode": "OPAQUE",
      "doubleSided": false
    }
  ],
  "meshes": [
    {
      "name": "Crate-Mesh",
      "primitives": [
        {
          "attributes": {
            "POSITION": 0,
            "NORMAL": 1,
            "TEXCOORD_0": 2
          },
          "indices": 3,
          "material": 0,
          "mode": 4
        }
      ]
    },
    {
      "name": "Cube-Mesh",
      "primitives": [
        {
          "attributes": {
            "POSITION": 4,
            "NORMAL": 5,
            "TEXCOORD_0": 6
          },
          "indices": 7,
          "material": 1,
          "mode": 4
        }
      ]
    },
    {
      "name": "Cube.001-Mesh",
      "primitives": [
        {
          "attributes": {
            "POSITION": 8,
            "NORMAL": 9,
            "TEXCOORD_0": 10
          },
          "indices": 11,
          "material": 2,
          "mode": 4
        }
      ]
    },
    {
      "name": "Cube.002-Mesh",
      "primitives": [
        {
          "attributes": {
            "POSITION": 12,
            "NORMAL": 13,
            "TEXCOORD_0": 14
          },
          "indices": 15,
          "material": 3,
          "mode": 4
        }
      ]
    },
    {
      "name": "Cube.003-Mesh",
      "primitives": [
        {
          "attributes": {
            "POSITION": 16,
            "NORMAL": 17,
            "TEXCOORD_0": 18
          },
          "indices": 19,
          "material": 4,
          "mode": 4
        }
      ]
    },
    {
      "name": "Cube.004-Mesh",
      "primitives": [
        {
          "attributes": {
            "POSITION": 20,
            "NORMAL": 21,
            "TEXCOORD_0": 22
          },
          "indices": 23,
          "material": 5,
          "mode": 4
        }
      ]
    },
    {
      "name": "Cube.005-Mesh",
      "primitives": [
        {
          "attributes": {
            "POSITION": 24,
            "NORMAL": 25,
            "TEXCOORD_0": 26
          },
          "indices": 27,
          "material": 6,
          "mode": 4
        }
      ]
    },
    {
      "name": "Cube.006-Mesh",
      "primitives": [
        {
          "attributes": {
            "POSITION": 28,
            "NORMAL": 29,
            "TEXCOORD_0": 30
          },
          "indices": 31,
          "material": 7,
          "mode": 4
        }
      ]
    },
    {
      "name": "Cube.007-Mesh",
      "primitives": [
        {
          "attributes": {
            "POSITION": 32,
            "NORMAL": 33,
            "TEXCOORD_0": 34
          },
          "indices": 35,
          "material": 8,
          "mode": 4
        }
      ]
    },
    {
      "name": "Cube.008-Mesh",
      "primitives": [
        {
          "attributes": {
            "POSITION": 36,
            "NORMAL": 37,
            "TEXCOORD_0": 38
          },
          "indices": 39,
          "material": 9,
          "mode": 4
        }
      ]
    }
  ],
  "nodes": [
    {
      "name": "Crate",
      "mesh": 0
    },
    {
      "name": "Cube",
      "mesh": 1
    },
    {
      "name": "Cube.001",
      "mesh": 2
    },
    {
      "name": "Cube.002",
      "mesh": 3
    },
    {
      "name": "Cube.003",
      "mesh": 4
    },
    {
      "name": "Cube.004",
      "mesh": 5
    },
    {
      "name": "Cube.005",
      "mesh": 6
    },
    {
      "name": "Cube.006",
      "mesh": 7
    },
    {
      "name": "Cube.007",
      "mesh": 8
    },
    {
      "name": "Cube.008",
      "mesh": 9
    }
  ],
  "scene": 0,
  "scenes": [
    {
      "nodes": [
        0,
        1,
        2,
        3,
        4,
        5,
        6,
        7,
        8,
        9
      ]
    }
  ]
}
