{
  "accessors": [
    {
      "name": "Crate-Mesh_0_positions",
      "componentType": 5126,
      "count": 1772,
      "min": [
        0.34993499517440796,
        0.3496229946613312,
        0.1494619995355606
      ],
      "max": [
        0.650065004825592,
        0.6503769755363464,
        0.45008599758148193
      ],
      "type": "VEC3",
      "bufferView": 0,
      "byteOffset": 0
    },
    {
      "name": "Crate-Mesh_0_normals",
      "componentType": 5126,
      "count": 1772,
      "min": [
        -1,
        -0.9999997615814209,
        -0.9999989867210388
      ],
      "max": [
        0.9999999403953552,
        0.9999993443489075,
        0.9999977946281433
      ],
      "type": "VEC3",
      "bufferView": 1,
      "byteOffset": 0
    },
    {
      "name": "Crate-Mesh_0_texcoords",
      "componentType": 5126,
      "count": 1772,
      "min": [
        -1.4421370029449463,
        -1.4421370029449463
      ],
      "max": [
        2.4421370029449463,
        2.965946912765503
      ],
      "type": "VEC2",
      "bufferView": 2,
      "byteOffset": 0
    },
    {
      "name": "Crate-Mesh_0_indices",
      "componentType": 5123,
      "count": 4728,
      "min": [
        0
      ],
      "max": [
        1771
      ],
      "type": "SCALAR",
      "bufferView": 3,
      "byteOffset": 0
    },
    {
      "name": "Cylinder-Mesh_0_positions",
      "componentType": 5126,
      "count": 192,
      "min": [
        0.549917995929718,
        0.3556919991970062,
        0.2777320146560669
      ],
      "max": [
        0.6340029835700989,
        0.5754820108413696,
        0.569703996181488
      ],
      "type": "VEC3",
      "bufferView": 0,
      "byteOffset": 21264
    },
    {
      "name": "Cylinder-Mesh_0_normals",
      "componentType": 5126,
      "count": 192,
      "min": [
        -0.9945428967475891,
        -0.8513143062591553,
        -0.854941189289093
      ],
      "max": [
        0.9945428967475891,
        0.8513221740722656,
        0.854941189289093
      ],
      "type": "VEC3",
      "bufferView": 1,
      "byteOffset": 21264
    },
    {
      "name": "Cylinder-Mesh_0_texcoords",
      "componentType": 5126,
      "count": 192,
      "min": [
        0,
        0
      ],
      "max": [
        1,
        0.9900000095367432
      ],
      "type": "VEC2",
      "bufferView": 2,
      "byteOffset": 14176
    },
    {
      "name": "Cylinder-Mesh_0_indices",
      "componentType": 5123,
      "count": 372,
      "min": [
        0
      ],
      "max": [
        191
      ],
      "type": "SCALAR",
      "bufferView": 3,
      "byteOffset": 9456
    },
    {
      "name": "Cylinder.003-Mesh_0_positions",
      "componentType": 5126,
      "count": 192,
      "min": [
        0.45653200149536133,
        0.3556919991970062,
        0.2777320146560669
      ],
      "max": [
        0.540615975856781,
        0.5754820108413696,
        0.569703996181488
      ],
      "type": "VEC3",
      "bufferView": 0,
      "byteOffset": 23568
    },
    {
      "name": "Cylinder.003-Mesh_0_normals",
      "componentType": 5126,
      "count": 192,
      "min": [
        -0.9945428967475891,
        -0.8513143062591553,
        -0.854941189289093
      ],
      "max": [
        0.9945528507232666,
        0.8513221740722656,
        0.854941189289093
      ],
      "type": "VEC3",
      "bufferView": 1,
      "byteOffset": 23568
    },
    {
      "name": "Cylinder.003-Mesh_0_texcoords",
      "componentType": 5126,
      "count": 192,
      "min": [
        0,
        0
      ],
      "max": [
        1,
        0.9900000095367432
      ],
      "type": "VEC2",
      "bufferView": 2,
      "byteOffset": 15712
    },
    {
      "name": "Cylinder.003-Mesh_0_indices",
      "componentType": 5123,
      "count": 372,
      "min": [
        0
      ],
      "max": [
        191
      ],
      "type": "SCALAR",
      "bufferView": 3,
      "byteOffset": 10200
    },
    {
      "name": "Cylinder.004-Mesh_0_positions",
      "componentType": 5126,
      "count": 192,
      "min": [
        0.3623169958591461,
        0.3556919991970062,
        0.2777320146560669
      ],
      "max": [
        0.44640201330184937,
        0.5754820108413696,
        0.569703996181488
      ],
      "type": "VEC3",
      "bufferView": 0,
      "byteOffset": 25872
    },
    {
      "name": "Cylinder.004-Mesh_0_normals",
      "componentType": 5126,
      "count": 192,
      "min": [
        -0.9945428967475891,
        -0.8513143062591553,
        -0.854941189289093
      ],
      "max": [
        0.9945428967475891,
        0.8513221740722656,
        0.854941189289093
      ],
      "type": "VEC3",
      "bufferView": 1,
      "byteOffset": 25872
    },
    {
      "name": "Cylinder.004-Mesh_0_texcoords",
      "componentType": 5126,
      "count": 192,
      "min": [
        0,
        0
      ],
      "max": [
        1,
        0.9900000095367432
      ],
      "type": "VEC2",
      "bufferView": 2,
      "byteOffset": 17248
    },
    {
      "name": "Cylinder.004-Mesh_0_indices",
      "componentType": 5123,
      "count": 372,
      "min": [
        0
      ],
      "max": [
        191
      ],
      "type": "SCALAR",
      "bufferView": 3,
      "byteOffset": 10944
    },
    {
      "name": "Cylinder.010-Mesh_0_positions",
      "componentType": 5126,
      "count": 192,
      "min": [
        0.549917995929718,
        0.4761419892311096,
        0.2822349965572357
      ],
      "max": [
        0.6340029835700989,
        0.6959319710731506,
        0.5742070078849792
      ],
      "type": "VEC3",
      "bufferView": 0,
      "byteOffset": 28176
    },
    {
      "name": "Cylinder.010-Mesh_0_normals",
      "componentType": 5126,
      "count": 192,
      "min": [
        -0.9945428967475891,
        -0.8513221740722656,
        -0.854941189289093
      ],
      "max": [
        0.9945428967475891,
        0.8513221740722656,
        0.854941189289093
      ],
      "type": "VEC3",
      "bufferView": 1,
      "byteOffset": 28176
    },
    {
      "name": "Cylinder.010-Mesh_0_texcoords",
      "componentType": 5126,
      "count": 192,
      "min": [
        0,
        0
      ],
      "max": [
        1,
        0.9900000095367432
      ],
      "type": "VEC2",
      "bufferView": 2,
      "byteOffset": 18784
    },
    {
      "name": "Cylinder.010-Mesh_0_indices",
      "componentType": 5123,
      "count": 372,
      "min": [
        0
      ],
      "max": [
        191
      ],
      "type": "SCALAR",
      "bufferView": 3,
      "byteOffset": 11688
    },
    {
      "name": "Cylinder.013-Mesh_0_positions",
      "componentType": 5126,
      "count": 192,
      "min": [
        0.45653200149536133,
        0.4761419892311096,
        0.2822349965572357
      ],
      "max": [
        0.540615975856781,
        0.6959319710731506,
        0.5742070078849792
      ],
      "type": "VEC3",
      "bufferView": 0,
      "byteOffset": 30480
    },
    {
      "name": "Cylinder.013-Mesh_0_normals",
      "componentType": 5126,
      "count": 192,
      "min": [
        -0.9945428967475891,
        -0.8513221740722656,
        -0.854941189289093
      ],
      "max": [
        0.9945528507232666,
        0.8513221740722656,
        0.854941189289093
      ],
      "type": "VEC3",
      "bufferView": 1,
      "byteOffset": 30480
    },
    {
      "name": "Cylinder.013-Mesh_0_texcoords",
      "componentType": 5126,
      "count": 192,
      "min": [
        0,
        0
      ],
      "max": [
        1,
        0.9900000095367432
      ],
      "type": "VEC2",
      "bufferView": 2,
      "byteOffset": 20320
    },
    {
      "name": "Cylinder.013-Mesh_0_indices",
      "componentType": 5123,
      "count": 372,
      "min": [
        0
      ],
      "max": [
        191
      ],
      "type": "SCALAR",
      "bufferView": 3,
      "byteOffset": 12432
    },
    {
      "name": "Cylinder.014-Mesh_0_positions",
      "componentType": 5126,
      "count": 192,
      "min": [
        0.3623169958591461,
        0.4761419892311096,
        0.2822349965572357
      ],
      "max": [
        0.44640201330184937,
        0.6959319710731506,
        0.5742070078849792
      ],
      "type": "VEC3",
      "bufferView": 0,
      "byteOffset": 32784
    },
    {
      "name": "Cylinder.014-Mesh_0_normals",
      "componentType": 5126,
      "count": 192,
      "min": [
        -0.9945428967475891,
        -0.8513221740722656,
        -0.854941189289093
      ],
      "max": [
        0.9945428967475891,
        0.8513221740722656,
        0.854941189289093
      ],
      "type": "VEC3",
      "bufferView": 1,
      "byteOffset": 32784
    },
    {
      "name": "Cylinder.014-Mesh_0_texcoords",
      "componentType": 5126,
      "count": 192,
      "min": [
        0,
        0
      ],
      "max": [
        1,
        0.9900000095367432
      ],
      "type": "VEC2",
      "bufferView": 2,
      "byteOffset": 21856
    },
    {
      "name": "Cylinder.014-Mesh_0_indices",
      "componentType": 5123,
      "count": 372,
      "min": [
        0
      ],
      "max": [
        191
      ],
      "type": "SCALAR",
      "bufferView": 3,
      "byteOffset": 13176
    }
  ],
  "asset": {
    "generator": "obj2gltf",
    "version": "2.0"
  },
  "buffers": [
    {
      "name": "holzstaebe",
      "byteLength": 107488,
      "uri": "data:application/octet-stream;base64,"
    }
  ],
  "bufferViews": [
    {
      "name": "bufferView_0",
      "buffer": 0,
      "byteLength": 35088,
      "byteOffset": 0,
      "byteStride": 12,
      "target": 34962
    },
    {
      "name": "bufferView_1",
      "buffer": 0,
      "byteLength": 35088,
      "byteOffset": 35088,
      "byteStride": 12,
      "target": 34962
    },
    {
      "name": "bufferView_2",
      "buffer": 0,
      "byteLength": 23392,
      "byteOffset": 70176,
      "byteStride": 8,
      "target": 34962
    },
    {
      "name": "bufferView_3",
      "buffer": 0,
      "byteLength": 13920,
      "byteOffset": 93568,
      "target": 34963
    }
  ],
  "materials": [
    {
      "name": "Material.002",
      "pbrMetallicRoughness": {
        "baseColorFactor": [
          0.8,
          0.288709,
          0.024927,
          1
        ],
        "metallicFactor": 0,
        "roughnessFactor": 0.75
      },
      "emissiveFactor": [
        0,
        0,
        0
      ],
      "alphaMode": "OPAQUE",
      "doubleSided": true
    },
    {
      "name": "Material.011",
      "pbrMetallicRoughness": {
        "baseColorFactor": [
          0.241279,
          0.17192,
          0.091803,
          1
        ],
        "metallicFactor": 0,
        "roughnessFactor": 0.75
      },
      "emissiveFactor": [
        0,
        0,
        0
      ],
      "alphaMode": "OPAQUE",
      "doubleSided": false
    },
    {
      "name": "Material.003",
      "pbrMetallicRoughness": {
        "baseColorFactor": [
          0.245581,
          0.174591,
          0.085279,
          1
        ],
        "metallicFactor": 0,
        "roughnessFactor": 0.75
      },
      "emissiveFactor": [
        0,
        0,
        0
      ],
      "alphaMode": "OPAQUE",
      "doubleSided": false
    },
    {
      "name": "Material.004",
      "pbrMetallicRoughness": {
        "baseColorFactor": [
          0.260021,
          0.19512,
          0.104511,
          1
        ],
        "metallicFactor": 0,
        "roughnessFactor": 0.75
      },
      "emissiveFactor": [
        0,
        0,
        0
      ],
      "alphaMode": "OPAQUE",
      "doubleSided": false
    },
    {
      "name": "Material.005",
      "pbrMetallicRoughness": {
        "baseColorFactor": [
          0.233516,
          0.165309,
          0.080472,
          1
        ],
        "metallicFactor": 0,
        "roughnessFactor": 0.75
      },
      "emissiveFactor": [
        0,
        0,
        0
      ],
      "alphaMode": "OPAQUE",
      "doubleSided": false
    },
    {
      "name": "Material.013",
      "pbrMetallicRoughness": {
        "baseColorFactor": [
          0.248036,
          0.176605,
          0.086606,
          1
        ],
        "metallicFactor": 0,
        "roughnessFactor": 0.75
      },
      "emissiveFactor": [
        0,
        0,
        0
      ],
      "alphaMode": "OPAQUE",
      "doubleSided": false
    },
    {
      "name": "Material.014",
      "pbrMetallicRoughness": {
        "baseColorFactor": [
          0.255488,
          0.184378,
          0.093143,
          1
        ],
        "metallicFactor": 0,
        "roughnessFactor": 0.75
      },
      "emissiveFactor": [
        0,
        0,
        0
      ],
      "alphaMode": "OPAQUE",
      "doubleSided": false
    }
  ],
  "meshes": [
    {
      "name": "Crate-Mesh",
      "primitives": [
        {
          "attributes": {
            "POSITION": 0,
            "NORMAL": 1,
            "TEXCOORD_0": 2
          },
          "indices": 3,
          "material": 0,
          "mode": 4
        }
      ]
    },
    {
      "name": "Cylinder-Mesh",
      "primitives": [
        {
          "attributes": {
            "POSITION": 4,
            "NORMAL": 5,
            "TEXCOORD_0": 6
          },
          "indices": 7,
          "material": 1,
          "mode": 4
        }
      ]
    },
    {
      "name": "Cylinder.003-Mesh",
      "primitives": [
        {
          "attributes": {
            "POSITION": 8,
            "NORMAL": 9,
            "TEXCOORD_0": 10
          },
          "indices": 11,
          "material": 2,
          "mode": 4
        }
      ]
    },
    {
      "name": "Cylinder.004-Mesh",
      "primitives": [
        {
          "attributes": {
            "POSITION": 12,
            "NORMAL": 13,
            "TEXCOORD_0": 14
          },
          "indices": 15,
          "material": 3,
          "mode": 4
        }
      ]
    },
    {
      "name": "Cylinder.010-Mesh",
      "primitives": [
        {
          "attributes": {
            "POSITION": 16,
            "NORMAL": 17,
            "TEXCOORD_0": 18
          },
          "indices": 19,
          "material": 4,
          "mode": 4
        }
      ]
    },
    {
      "name": "Cylinder.013-Mesh",
      "primitives": [
        {
          "attributes": {
            "POSITION": 20,
            "NORMAL": 21,
            "TEXCOORD_0": 22
          },
          "indices": 23,
          "material": 5,
          "mode": 4
        }
      ]
    },
    {
      "name": "Cylinder.014-Mesh",
      "primitives": [
        {
          "attributes": {
            "POSITION": 24,
            "NORMAL": 25,
            "TEXCOORD_0": 26
          },
          "indices": 27,
          "material": 6,
          "mode": 4
        }
      ]
    }
  ],
  "nodes": [
    {
      "name": "Crate",
      "mesh": 0
    },
    {
      "name": "Cylinder",
      "mesh": 1
    },
    {
      "name": "Cylinder.003",
      "mesh": 2
    },
    {
      "name": "Cylinder.004",
      "mesh": 3
    },
    {
      "name": "Cylinder.010",
      "mesh": 4
    },
    {
      "name": "Cylinder.013",
      "mesh": 5
    },
    {
      "name": "Cylinder.014",
      "mesh": 6
    }
  ],
  "scene": 0,
  "scenes": [
    {
      "nodes": [
        0,
        1,
        2,
        3,
        4,
        5,
        6
      ]
    }
  ]
}
