{
  "accessors": [
    {
      "name": "pillar_middle-Mesh_0_positions",
      "componentType": 5126,
      "count": 2068,
      "min": [
        0.2624320089817047,
        0.24985599517822266,
        0.13767799735069275
      ],
      "max": [
        0.7757899761199951,
        0.7609350085258484,
        1.9007580280303955
      ],
      "type": "VEC3",
      "bufferView": 0,
      "byteOffset": 0
    },
    {
      "name": "pillar_middle-Mesh_0_normals",
      "componentType": 5126,
      "count": 2068,
      "min": [
        -1,
        -1,
        -0.7212998270988464
      ],
      "max": [
        0.9999925494194031,
        0.9998712539672852,
        0.7188023924827576
      ],
      "type": "VEC3",
      "bufferView": 1,
      "byteOffset": 0
    },
    {
      "name": "pillar_middle-Mesh_0_texcoords",
      "componentType": 5126,
      "count": 2068,
      "min": [
        0,
        0
      ],
      "max": [
        1,
        0.9900000095367432
      ],
      "type": "VEC2",
      "bufferView": 2,
      "byteOffset": 0
    },
    {
      "name": "pillar_middle-Mesh_0_indices",
      "componentType": 5123,
      "count": 11604,
      "min": [
        0
      ],
      "max": [
        2067
      ],
      "type": "SCALAR",
      "bufferView": 3,
      "byteOffset": 0
    },
    {
      "name": "pillar_top-Mesh_0_positions",
      "componentType": 5126,
      "count": 358,
      "min": [
        0.15773700177669525,
        0.15556299686431885,
        1.852560043334961
      ],
      "max": [
        0.8577370047569275,
        0.8555629849433899,
        2.0005979537963867
      ],
      "type": "VEC3",
      "bufferView": 0,
      "byteOffset": 24816
    },
    {
      "name": "pillar_top-Mesh_0_normals",
      "componentType": 5126,
      "count": 358,
      "min": [
        -1,
        -1,
        -0.9970264434814453
      ],
      "max": [
        1,
        1,
        0.9970296025276184
      ],
      "type": "VEC3",
      "bufferView": 1,
      "byteOffset": 24816
    },
    {
      "name": "pillar_top-Mesh_0_texcoords",
      "componentType": 5126,
      "count": 358,
      "min": [
        0,
        0
      ],
      "max": [
        1,
        0.9900000095367432
      ],
      "type": "VEC2",
      "bufferView": 2,
      "byteOffset": 16544
    },
    {
      "name": "pillar_top-Mesh_0_indices",
      "componentType": 5123,
      "count": 1572,
      "min": [
        0
      ],
      "max": [
        357
      ],
      "type": "SCALAR",
      "bufferView": 3,
      "byteOffset": 23208
    },
    {
      "name": "pillar_bottom-Mesh_0_positions",
      "componentType": 5126,
      "count": 358,
      "min": [
        0.14944800734519958,
        0.14796799421310425,
        0.0028570001013576984
      ],
      "max": [
        0.849448025226593,
        0.8479679822921753,
        0.15089499950408936
      ],
      "type": "VEC3",
      "bufferView": 0,
      "byteOffset": 29112
    },
    {
      "name": "pillar_bottom-Mesh_0_normals",
      "componentType": 5126,
      "count": 358,
      "min": [
        -1,
        -1,
        -0.9970264434814453
      ],
      "max": [
        1,
        1,
        0.9970296025276184
      ],
      "type": "VEC3",
      "bufferView": 1,
      "byteOffset": 29112
    },
    {
      "name": "pillar_bottom-Mesh_0_texcoords",
      "componentType": 5126,
      "count": 358,
      "min": [
        0,
        0
      ],
      "max": [
        1,
        0.9900000095367432
      ],
      "type": "VEC2",
      "bufferView": 2,
      "byteOffset": 19408
    },
    {
      "name": "pillar_bottom-Mesh_0_indices",
      "componentType": 5123,
      "count": 1572,
      "min": [
        0
      ],
      "max": [
        357
      ],
      "type": "SCALAR",
      "bufferView": 3,
      "byteOffset": 26352
    }
  ],
  "asset": {
    "generator": "obj2gltf",
    "version": "2.0"
  },
  "buffers": [
    {
      "name": "pillar",
      "byteLength": 1012292,
      "uri": "data:application/octet-stream;base64,"
    }
  ],
  "bufferViews": [
    {
      "name": "bufferView_0",
      "buffer": 0,
      "byteLength": 33408,
      "byteOffset": 0,
      "byteStride": 12,
      "target": 34962
    },
    {
      "name": "bufferView_1",
      "buffer": 0,
      "byteLength": 33408,
      "byteOffset": 33408,
      "byteStride": 12,
      "target": 34962
    },
    {
      "name": "bufferView_2",
      "buffer": 0,
      "byteLength": 22272,
      "byteOffset": 66816,
      "byteStride": 8,
      "target": 34962
    },
    {
      "name": "bufferView_3",
      "buffer": 0,
      "byteLength": 29496,
      "byteOffset": 89088,
      "target": 34963
    },
    {
      "buffer": 0,
      "byteOffset": 118584,
      "byteLength": 893706
    }
  ],
  "images": [
    {
      "name": "Bildschirmfoto_2024-01-28_um_13.56.43",
      "mimeType": "image/png",
      "bufferView": 4
    }
  ],
  "materials": [
    {
      "name": "Material.001",
      "pbrMetallicRoughness": {
        "baseColorTexture": {
          "index": 0
        },
        "baseColorFactor": [
          1,
          1,
          1,
          1
        ],
        "metallicFactor": 0,
        "roughnessFactor": 0.75
      },
      "emissiveFactor": [
        0,
        0,
        0
      ],
      "alphaMode": "OPAQUE",
      "doubleSided": true
    },
    {
      "name": "Material.002",
      "pbrMetallicRoughness": {
        "baseColorTexture": {
          "index": 0
        },
        "baseColorFactor": [
          1,
          1,
          1,
          1
        ],
        "metallicFactor": 0,
        "roughnessFactor": 0.75
      },
      "emissiveFactor": [
        0,
        0,
        0
      ],
      "alphaMode": "OPAQUE",
      "doubleSided": true
    },
    {
      "name": "Material.003",
      "pbrMetallicRoughness": {
        "baseColorTexture": {
          "index": 0
        },
        "baseColorFactor": [
          1,
          1,
          1,
          1
        ],
        "metallicFactor": 0,
        "roughnessFactor": 0.75
      },
      "emissiveFactor": [
        0,
        0,
        0
      ],
      "alphaMode": "OPAQUE",
      "doubleSided": true
    }
  ],
  "meshes": [
    {
      "name": "pillar_middle-Mesh",
      "primitives": [
        {
          "attributes": {
            "POSITION": 0,
            "NORMAL": 1,
            "TEXCOORD_0": 2
          },
          "indices": 3,
          "material": 0,
          "mode": 4
        }
      ]
    },
    {
      "name": "pillar_top-Mesh",
      "primitives": [
        {
          "attributes": {
            "POSITION": 4,
            "NORMAL": 5,
            "TEXCOORD_0": 6
          },
          "indices": 7,
          "material": 1,
          "mode": 4
        }
      ]
    },
    {
      "name": "pillar_bottom-Mesh",
      "primitives": [
        {
          "attributes": {
            "POSITION": 8,
            "NORMAL": 9,
            "TEXCOORD_0": 10
          },
          "indices": 11,
          "material": 2,
          "mode": 4
        }
      ]
    }
  ],
  "nodes": [
    {
      "name": "pillar_middle",
      "mesh": 0
    },
    {
      "name": "pillar_top",
      "mesh": 1
    },
    {
      "name": "pillar_bottom",
      "mesh": 2
    }
  ],
  "samplers": [
    {
      "wrapS": 10497,
      "wrapT": 10497
    }
  ],
  "scene": 0,
  "scenes": [
    {
      "nodes": [
        0,
        1,
        2
      ]
    }
  ],
  "textures": [
    {
      "name": "Bildschirmfoto_2024-01-28_um_13.56.43",
      "sampler": 0,
      "source": 0
    }
  ]
}
