{
  "accessors": [
    {
      "name": "Sign-Mesh_0_positions",
      "componentType": 5126,
      "count": 70,
      "min": [
        0.48658400774002075,
        0.2861790060997009,
        0.0000470000013592653
      ],
      "max": [
        0.5069860219955444,
        0.7138209939002991,
        1.3393369913101196
      ],
      "type": "VEC3",
      "bufferView": 0,
      "byteOffset": 0
    },
    {
      "name": "Sign-Mesh_0_normals",
      "componentType": 5126,
      "count": 70,
      "min": [
        -0.9999794960021973,
        -1,
        -0.9999794960021973
      ],
      "max": [
        0.9999788999557495,
        1,
        0.9999794960021973
      ],
      "type": "VEC3",
      "bufferView": 1,
      "byteOffset": 0
    },
    {
      "name": "Sign-Mesh_0_texcoords",
      "componentType": 5126,
      "count": 70,
      "min": [
        -2.442275047302246,
        -3.7330679893493652
      ],
      "max": [
        3.0965020656585693,
        4.733067989349365
      ],
      "type": "VEC2",
      "bufferView": 2,
      "byteOffset": 0
    },
    {
      "name": "Sign-Mesh_0_indices",
      "componentType": 5123,
      "count": 114,
      "min": [
        0
      ],
      "max": [
        69
      ],
      "type": "SCALAR",
      "bufferView": 3,
      "byteOffset": 0
    },
    {
      "name": "Sign-Mesh_1_positions",
      "componentType": 5126,
      "count": 4,
      "min": [
        0.5013769865036011,
        0.29468101263046265,
        1.028988003730774
      ],
      "max": [
        0.5033329725265503,
        0.7053189873695374,
        1.3319059610366821
      ],
      "type": "VEC3",
      "bufferView": 0,
      "byteOffset": 840
    },
    {
      "name": "Sign-Mesh_1_normals",
      "componentType": 5126,
      "count": 4,
      "min": [
        0.9999788999557495,
        0,
        -0.006499862764030695
      ],
      "max": [
        0.9999788999557495,
        0,
        -0.006499862764030695
      ],
      "type": "VEC3",
      "bufferView": 1,
      "byteOffset": 840
    },
    {
      "name": "Sign-Mesh_1_texcoords",
      "componentType": 5126,
      "count": 4,
      "min": [
        0.019881999120116234,
        0.02322399988770485
      ],
      "max": [
        0.9801179766654968,
        0.9767739772796631
      ],
      "type": "VEC2",
      "bufferView": 2,
      "byteOffset": 560
    },
    {
      "name": "Sign-Mesh_1_indices",
      "componentType": 5123,
      "count": 6,
      "min": [
        0
      ],
      "max": [
        3
      ],
      "type": "SCALAR",
      "bufferView": 3,
      "byteOffset": 228
    }
  ],
  "asset": {
    "generator": "obj2gltf",
    "version": "2.0"
  },
  "buffers": [
    {
      "name": "sign",
      "byteLength": 2608,
      "uri": "data:application/octet-stream;base64,"
    }
  ],
  "bufferViews": [
    {
      "name": "bufferView_0",
      "buffer": 0,
      "byteLength": 888,
      "byteOffset": 0,
      "byteStride": 12,
      "target": 34962
    },
    {
      "name": "bufferView_1",
      "buffer": 0,
      "byteLength": 888,
      "byteOffset": 888,
      "byteStride": 12,
      "target": 34962
    },
    {
      "name": "bufferView_2",
      "buffer": 0,
      "byteLength": 592,
      "byteOffset": 1776,
      "byteStride": 8,
      "target": 34962
    },
    {
      "name": "bufferView_3",
      "buffer": 0,
      "byteLength": 240,
      "byteOffset": 2368,
      "target": 34963
    }
  ],
  "materials": [
    {
      "name": "lambert3",
      "pbrMetallicRoughness": {
        "baseColorFactor": [
          0.029986,
          0.012082,
          0.004208,
          1
        ],
        "metallicFactor": 0,
        "roughnessFactor": 0.522882568
      },
      "emissiveFactor": [
        0,
        0,
        0
      ],
      "alphaMode": "OPAQUE",
      "doubleSided": true
    },
    {
      "name": "lambert2",
      "pbrMetallicRoughness": {
        "baseColorFactor": [
          0.5,
          0.5,
          0.5,
          1
        ],
        "metallicFactor": 0,
        "roughnessFactor": 0.8
      },
      "emissiveFactor": [
        0,
        0,
        0
      ],
      "alphaMode": "OPAQUE",
      "doubleSided": true
    }
  ],
  "meshes": [
    {
      "name": "Sign-Mesh",
      "primitives": [
        {
          "attributes": {
            "POSITION": 0,
            "NORMAL": 1,
            "TEXCOORD_0": 2
          },
          "indices": 3,
          "material": 0,
          "mode": 4
        },
        {
          "attributes": {
            "POSITION": 4,
            "NORMAL": 5,
            "TEXCOORD_0": 6
          },
          "indices": 7,
          "material": 1,
          "mode": 4
        }
      ]
    }
  ],
  "nodes": [
    {
      "name": "Sign",
      "mesh": 0
    }
  ],
  "scene": 0,
  "scenes": [
    {
      "nodes": [
        0
      ]
    }
  ]
}
