{
  "accessors": [
    {
      "name": "roof_w-Mesh_0_positions",
      "componentType": 5126,
      "count": 24,
      "min": [
        0.10000000149011612,
        0.10425300151109695,
        1.7159849405288696
      ],
      "max": [
        2.9000000953674316,
        2.879080057144165,
        2.3006811141967773
      ],
      "type": "VEC3",
      "bufferView": 0,
      "byteOffset": 0
    },
    {
      "name": "roof_w-Mesh_0_normals",
      "componentType": 5126,
      "count": 24,
      "min": [
        -1,
        -0.984815776348114,
        -0.984815776348114
      ],
      "max": [
        1,
        0.984815776348114,
        0.984815776348114
      ],
      "type": "VEC3",
      "bufferView": 1,
      "byteOffset": 0
    },
    {
      "name": "roof_w-Mesh_0_texcoords",
      "componentType": 5126,
      "count": 24,
      "min": [
        0.125,
        0
      ],
      "max": [
        0.875,
        1
      ],
      "type": "VEC2",
      "bufferView": 2,
      "byteOffset": 0
    },
    {
      "name": "roof_w-Mesh_0_indices",
      "componentType": 5123,
      "count": 36,
      "min": [
        0
      ],
      "max": [
        23
      ],
      "type": "SCALAR",
      "bufferView": 3,
      "byteOffset": 0
    },
    {
      "name": "shed_w-Mesh_0_positions",
      "componentType": 5126,
      "count": 24,
      "min": [
        0.20000000298023224,
        0.19166600704193115,
        0.008333000354468822
      ],
      "max": [
        2.799999952316284,
        2.7916669845581055,
        2.1867868900299072
      ],
      "type": "VEC3",
      "bufferView": 0,
      "byteOffset": 288
    },
    {
      "name": "shed_w-Mesh_0_normals",
      "componentType": 5126,
      "count": 24,
      "min": [
        -1,
        -1,
        -1
      ],
      "max": [
        1,
        1,
        0.984815776348114
      ],
      "type": "VEC3",
      "bufferView": 1,
      "byteOffset": 288
    },
    {
      "name": "shed_w-Mesh_0_texcoords",
      "componentType": 5126,
      "count": 24,
      "min": [
        0.125,
        0
      ],
      "max": [
        0.5565379858016968,
        1
      ],
      "type": "VEC2",
      "bufferView": 2,
      "byteOffset": 192
    },
    {
      "name": "shed_w-Mesh_0_indices",
      "componentType": 5123,
      "count": 36,
      "min": [
        0
      ],
      "max": [
        23
      ],
      "type": "SCALAR",
      "bufferView": 3,
      "byteOffset": 72
    },
    {
      "name": "pipe_cylinder-Mesh_0_positions",
      "componentType": 5126,
      "count": 260,
      "min": [
        2.0999999046325684,
        1.266666054725647,
        0.1333329975605011
      ],
      "max": [
        2.9000000953674316,
        1.7166659832000732,
        0.5833330154418945
      ],
      "type": "VEC3",
      "bufferView": 0,
      "byteOffset": 576
    },
    {
      "name": "pipe_cylinder-Mesh_0_normals",
      "componentType": 5126,
      "count": 260,
      "min": [
        -1,
        -1,
        -1
      ],
      "max": [
        1,
        1,
        1
      ],
      "type": "VEC3",
      "bufferView": 1,
      "byteOffset": 576
    },
    {
      "name": "pipe_cylinder-Mesh_0_texcoords",
      "componentType": 5126,
      "count": 260,
      "min": [
        0,
        0
      ],
      "max": [
        1,
        0.9900000095367432
      ],
      "type": "VEC2",
      "bufferView": 2,
      "byteOffset": 384
    },
    {
      "name": "pipe_cylinder-Mesh_0_indices",
      "componentType": 5123,
      "count": 768,
      "min": [
        0
      ],
      "max": [
        259
      ],
      "type": "SCALAR",
      "bufferView": 3,
      "byteOffset": 144
    },
    {
      "name": "pipe_entrance-Mesh_0_positions",
      "componentType": 5126,
      "count": 364,
      "min": [
        2.899998903274536,
        1.2416670322418213,
        0.10833299905061722
      ],
      "max": [
        2.9999990463256836,
        1.7416670322418213,
        0.6083329916000366
      ],
      "type": "VEC3",
      "bufferView": 0,
      "byteOffset": 3696
    },
    {
      "name": "pipe_entrance-Mesh_0_normals",
      "componentType": 5126,
      "count": 364,
      "min": [
        -1,
        -1,
        -1
      ],
      "max": [
        1,
        1,
        1
      ],
      "type": "VEC3",
      "bufferView": 1,
      "byteOffset": 3696
    },
    {
      "name": "pipe_entrance-Mesh_0_texcoords",
      "componentType": 5126,
      "count": 364,
      "min": [
        0,
        0
      ],
      "max": [
        1,
        1
      ],
      "type": "VEC2",
      "bufferView": 2,
      "byteOffset": 2464
    },
    {
      "name": "pipe_entrance-Mesh_0_indices",
      "componentType": 5123,
      "count": 1056,
      "min": [
        0
      ],
      "max": [
        363
      ],
      "type": "SCALAR",
      "bufferView": 3,
      "byteOffset": 1680
    },
    {
      "name": "pipe_exit-Mesh_0_positions",
      "componentType": 5126,
      "count": 364,
      "min": [
        1.9999990463256836,
        1.2416670322418213,
        0.10833299905061722
      ],
      "max": [
        2.099998950958252,
        1.7416670322418213,
        0.6083329916000366
      ],
      "type": "VEC3",
      "bufferView": 0,
      "byteOffset": 8064
    },
    {
      "name": "pipe_exit-Mesh_0_normals",
      "componentType": 5126,
      "count": 364,
      "min": [
        -1,
        -1,
        -1
      ],
      "max": [
        1,
        1,
        1
      ],
      "type": "VEC3",
      "bufferView": 1,
      "byteOffset": 8064
    },
    {
      "name": "pipe_exit-Mesh_0_texcoords",
      "componentType": 5126,
      "count": 364,
      "min": [
        0,
        0
      ],
      "max": [
        1,
        1
      ],
      "type": "VEC2",
      "bufferView": 2,
      "byteOffset": 5376
    },
    {
      "name": "pipe_exit-Mesh_0_indices",
      "componentType": 5123,
      "count": 1056,
      "min": [
        0
      ],
      "max": [
        363
      ],
      "type": "SCALAR",
      "bufferView": 3,
      "byteOffset": 3792
    }
  ],
  "asset": {
    "generator": "obj2gltf",
    "version": "2.0"
  },
  "buffers": [
    {
      "name": "warenausgabe",
      "byteLength": 39056,
      "uri": "data:application/octet-stream;base64,"
    }
  ],
  "bufferViews": [
    {
      "name": "bufferView_0",
      "buffer": 0,
      "byteLength": 12432,
      "byteOffset": 0,
      "byteStride": 12,
      "target": 34962
    },
    {
      "name": "bufferView_1",
      "buffer": 0,
      "byteLength": 12432,
      "byteOffset": 12432,
      "byteStride": 12,
      "target": 34962
    },
    {
      "name": "bufferView_2",
      "buffer": 0,
      "byteLength": 8288,
      "byteOffset": 24864,
      "byteStride": 8,
      "target": 34962
    },
    {
      "name": "bufferView_3",
      "buffer": 0,
      "byteLength": 5904,
      "byteOffset": 33152,
      "target": 34963
    }
  ],
  "materials": [
    {
      "name": "default",
      "pbrMetallicRoughness": {
        "baseColorFactor": [
          0.5,
          0.5,
          0.5,
          1
        ],
        "metallicFactor": 0,
        "roughnessFactor": 1
      },
      "emissiveFactor": [
        0,
        0,
        0
      ],
      "alphaMode": "OPAQUE",
      "doubleSided": true
    },
    {
      "name": "Material.001",
      "pbrMetallicRoughness": {
        "baseColorFactor": [
          0.8,
          0.739672,
          0.739672,
          1
        ],
        "metallicFactor": 0,
        "roughnessFactor": 0.3600000609999999
      },
      "emissiveFactor": [
        0,
        0,
        0
      ],
      "alphaMode": "OPAQUE",
      "doubleSided": true
    }
  ],
  "meshes": [
    {
      "name": "roof_w-Mesh",
      "primitives": [
        {
          "attributes": {
            "POSITION": 0,
            "NORMAL": 1,
            "TEXCOORD_0": 2
          },
          "indices": 3,
          "material": 0,
          "mode": 4
        }
      ]
    },
    {
      "name": "shed_w-Mesh",
      "primitives": [
        {
          "attributes": {
            "POSITION": 4,
            "NORMAL": 5,
            "TEXCOORD_0": 6
          },
          "indices": 7,
          "material": 0,
          "mode": 4
        }
      ]
    },
    {
      "name": "pipe_cylinder-Mesh",
      "primitives": [
        {
          "attributes": {
            "POSITION": 8,
            "NORMAL": 9,
            "TEXCOORD_0": 10
          },
          "indices": 11,
          "material": 1,
          "mode": 4
        }
      ]
    },
    {
      "name": "pipe_entrance-Mesh",
      "primitives": [
        {
          "attributes": {
            "POSITION": 12,
            "NORMAL": 13,
            "TEXCOORD_0": 14
          },
          "indices": 15,
          "material": 1,
          "mode": 4
        }
      ]
    },
    {
      "name": "pipe_exit-Mesh",
      "primitives": [
        {
          "attributes": {
            "POSITION": 16,
            "NORMAL": 17,
            "TEXCOORD_0": 18
          },
          "indices": 19,
          "material": 1,
          "mode": 4
        }
      ]
    }
  ],
  "nodes": [
    {
      "name": "roof_w",
      "mesh": 0
    },
    {
      "name": "shed_w",
      "mesh": 1
    },
    {
      "name": "pipe_cylinder",
      "mesh": 2
    },
    {
      "name": "pipe_entrance",
      "mesh": 3
    },
    {
      "name": "pipe_exit",
      "mesh": 4
    }
  ],
  "scene": 0,
  "scenes": [
    {
      "nodes": [
        0,
        1,
        2,
        3,
        4
      ]
    }
  ]
}
