{
  "accessors": [
    {
      "name": "Cylinder-Mesh_0_positions",
      "componentType": 5126,
      "count": 108,
      "min": [
        0.327659010887146,
        0.3237749934196472,
        0.22327899932861328
      ],
      "max": [
        0.672340989112854,
        0.6762250065803528,
        0.47672098875045776
      ],
      "type": "VEC3",
      "bufferView": 0,
      "byteOffset": 0
    },
    {
      "name": "Cylinder-Mesh_0_normals",
      "componentType": 5126,
      "count": 108,
      "min": [
        -1,
        -0.9847694039344788,
        -0.9999510049819946
      ],
      "max": [
        1,
        0.9847694039344788,
        0.9999510049819946
      ],
      "type": "VEC3",
      "bufferView": 1,
      "byteOffset": 0
    },
    {
      "name": "Cylinder-Mesh_0_texcoords",
      "componentType": 5126,
      "count": 108,
      "min": [
        0,
        0
      ],
      "max": [
        1,
        0.9900000095367432
      ],
      "type": "VEC2",
      "bufferView": 2,
      "byteOffset": 0
    },
    {
      "name": "Cylinder-Mesh_0_indices",
      "componentType": 5123,
      "count": 204,
      "min": [
        0
      ],
      "max": [
        107
      ],
      "type": "SCALAR",
      "bufferView": 3,
      "byteOffset": 0
    }
  ],
  "asset": {
    "generator": "obj2gltf",
    "version": "2.0"
  },
  "buffers": [
    {
      "name": "bildschirm",
      "byteLength": 3864,
      "uri": "data:application/octet-stream;base64,"
    }
  ],
  "bufferViews": [
    {
      "name": "bufferView_0",
      "buffer": 0,
      "byteLength": 1296,
      "byteOffset": 0,
      "byteStride": 12,
      "target": 34962
    },
    {
      "name": "bufferView_1",
      "buffer": 0,
      "byteLength": 1296,
      "byteOffset": 1296,
      "byteStride": 12,
      "target": 34962
    },
    {
      "name": "bufferView_2",
      "buffer": 0,
      "byteLength": 864,
      "byteOffset": 2592,
      "byteStride": 8,
      "target": 34962
    },
    {
      "name": "bufferView_3",
      "buffer": 0,
      "byteLength": 408,
      "byteOffset": 3456,
      "target": 34963
    }
  ],
  "materials": [
    {
      "name": "Material",
      "pbrMetallicRoughness": {
        "baseColorFactor": [
          0.8,
          0.8,
          0.8,
          1
        ],
        "metallicFactor": 0,
        "roughnessFactor": 0.75
      },
      "emissiveFactor": [
        0,
        0,
        0
      ],
      "alphaMode": "OPAQUE",
      "doubleSided": false
    }
  ],
  "meshes": [
    {
      "name": "Cylinder-Mesh",
      "primitives": [
        {
          "attributes": {
            "POSITION": 0,
            "NORMAL": 1,
            "TEXCOORD_0": 2
          },
          "indices": 3,
          "material": 0,
          "mode": 4
        }
      ]
    }
  ],
  "nodes": [
    {
      "name": "Cylinder",
      "mesh": 0
    }
  ],
  "scene": 0,
  "scenes": [
    {
      "nodes": [
        0
      ]
    }
  ]
}
