{
  "accessors": [
    {
      "name": "Sphere-Mesh_0_positions",
      "componentType": 5126,
      "count": 1116,
      "min": [
        0.327659010887146,
        0.32499998807907104,
        0.17499999701976776
      ],
      "max": [
        0.672340989112854,
        0.675000011920929,
        0.5249999761581421
      ],
      "type": "VEC3",
      "bufferView": 0,
      "byteOffset": 0
    },
    {
      "name": "Sphere-Mesh_0_normals",
      "componentType": 5126,
      "count": 1116,
      "min": [
        -0.995332658290863,
        -0.9950382113456726,
        -0.9802175760269165
      ],
      "max": [
        0.995332658290863,
        0.9950382113456726,
        0.9802175760269165
      ],
      "type": "VEC3",
      "bufferView": 1,
      "byteOffset": 0
    },
    {
      "name": "Sphere-Mesh_0_texcoords",
      "componentType": 5126,
      "count": 1116,
      "min": [
        0,
        0
      ],
      "max": [
        1,
        1
      ],
      "type": "VEC2",
      "bufferView": 2,
      "byteOffset": 0
    },
    {
      "name": "Sphere-Mesh_0_indices",
      "componentType": 5123,
      "count": 1620,
      "min": [
        0
      ],
      "max": [
        1115
      ],
      "type": "SCALAR",
      "bufferView": 3,
      "byteOffset": 0
    }
  ],
  "asset": {
    "generator": "obj2gltf",
    "version": "2.0"
  },
  "buffers": [
    {
      "name": "zinn_barren",
      "byteLength": 38952,
      "uri": "data:application/octet-stream;base64,"
    }
  ],
  "bufferViews": [
    {
      "name": "bufferView_0",
      "buffer": 0,
      "byteLength": 13392,
      "byteOffset": 0,
      "byteStride": 12,
      "target": 34962
    },
    {
      "name": "bufferView_1",
      "buffer": 0,
      "byteLength": 13392,
      "byteOffset": 13392,
      "byteStride": 12,
      "target": 34962
    },
    {
      "name": "bufferView_2",
      "buffer": 0,
      "byteLength": 8928,
      "byteOffset": 26784,
      "byteStride": 8,
      "target": 34962
    },
    {
      "name": "bufferView_3",
      "buffer": 0,
      "byteLength": 3240,
      "byteOffset": 35712,
      "target": 34963
    }
  ],
  "materials": [
    {
      "name": "Material.004",
      "pbrMetallicRoughness": {
        "baseColorFactor": [
          0.116014,
          0.048034,
          0.003302,
          1
        ],
        "metallicFactor": 0,
        "roughnessFactor": 0.75
      },
      "emissiveFactor": [
        0,
        0,
        0
      ],
      "alphaMode": "OPAQUE",
      "doubleSided": false
    }
  ],
  "meshes": [
    {
      "name": "Sphere-Mesh",
      "primitives": [
        {
          "attributes": {
            "POSITION": 0,
            "NORMAL": 1,
            "TEXCOORD_0": 2
          },
          "indices": 3,
          "material": 0,
          "mode": 4
        }
      ]
    }
  ],
  "nodes": [
    {
      "name": "Sphere",
      "mesh": 0
    }
  ],
  "scene": 0,
  "scenes": [
    {
      "nodes": [
        0
      ]
    }
  ]
}
