{
  "accessors": [
    {
      "name": "cube_left-Mesh_0_positions",
      "componentType": 5126,
      "count": 24,
      "min": [
        0,
        0,
        0
      ],
      "max": [
        1,
        1,
        1
      ],
      "type": "VEC3",
      "bufferView": 0,
      "byteOffset": 0
    },
    {
      "name": "cube_left-Mesh_0_normals",
      "componentType": 5126,
      "count": 24,
      "min": [
        -1,
        -1,
        -1
      ],
      "max": [
        1,
        1,
        1
      ],
      "type": "VEC3",
      "bufferView": 1,
      "byteOffset": 0
    },
    {
      "name": "cube_left-Mesh_0_texcoords",
      "componentType": 5126,
      "count": 24,
      "min": [
        0.125,
        0
      ],
      "max": [
        0.875,
        1
      ],
      "type": "VEC2",
      "bufferView": 2,
      "byteOffset": 0
    },
    {
      "name": "cube_left-Mesh_0_indices",
      "componentType": 5123,
      "count": 36,
      "min": [
        0
      ],
      "max": [
        23
      ],
      "type": "SCALAR",
      "bufferView": 3,
      "byteOffset": 0
    },
    {
      "name": "cube_middle_bottom-Mesh_0_positions",
      "componentType": 5126,
      "count": 24,
      "min": [
        0,
        1,
        0
      ],
      "max": [
        1,
        2,
        1
      ],
      "type": "VEC3",
      "bufferView": 0,
      "byteOffset": 288
    },
    {
      "name": "cube_middle_bottom-Mesh_0_normals",
      "componentType": 5126,
      "count": 24,
      "min": [
        -1,
        -1,
        -1
      ],
      "max": [
        1,
        1,
        1
      ],
      "type": "VEC3",
      "bufferView": 1,
      "byteOffset": 288
    },
    {
      "name": "cube_middle_bottom-Mesh_0_texcoords",
      "componentType": 5126,
      "count": 24,
      "min": [
        0.125,
        0
      ],
      "max": [
        0.875,
        1
      ],
      "type": "VEC2",
      "bufferView": 2,
      "byteOffset": 192
    },
    {
      "name": "cube_middle_bottom-Mesh_0_indices",
      "componentType": 5123,
      "count": 36,
      "min": [
        0
      ],
      "max": [
        23
      ],
      "type": "SCALAR",
      "bufferView": 3,
      "byteOffset": 72
    },
    {
      "name": "cube_right-Mesh_0_positions",
      "componentType": 5126,
      "count": 24,
      "min": [
        0,
        2,
        0
      ],
      "max": [
        1,
        3,
        1
      ],
      "type": "VEC3",
      "bufferView": 0,
      "byteOffset": 576
    },
    {
      "name": "cube_right-Mesh_0_normals",
      "componentType": 5126,
      "count": 24,
      "min": [
        -1,
        -1,
        -1
      ],
      "max": [
        1,
        1,
        1
      ],
      "type": "VEC3",
      "bufferView": 1,
      "byteOffset": 576
    },
    {
      "name": "cube_right-Mesh_0_texcoords",
      "componentType": 5126,
      "count": 24,
      "min": [
        0.125,
        0
      ],
      "max": [
        0.875,
        1
      ],
      "type": "VEC2",
      "bufferView": 2,
      "byteOffset": 384
    },
    {
      "name": "cube_right-Mesh_0_indices",
      "componentType": 5123,
      "count": 36,
      "min": [
        0
      ],
      "max": [
        23
      ],
      "type": "SCALAR",
      "bufferView": 3,
      "byteOffset": 144
    },
    {
      "name": "cube_middle_top-Mesh_0_positions",
      "componentType": 5126,
      "count": 24,
      "min": [
        0,
        1,
        1
      ],
      "max": [
        1,
        2,
        2
      ],
      "type": "VEC3",
      "bufferView": 0,
      "byteOffset": 864
    },
    {
      "name": "cube_middle_top-Mesh_0_normals",
      "componentType": 5126,
      "count": 24,
      "min": [
        -1,
        -1,
        -1
      ],
      "max": [
        1,
        1,
        1
      ],
      "type": "VEC3",
      "bufferView": 1,
      "byteOffset": 864
    },
    {
      "name": "cube_middle_top-Mesh_0_texcoords",
      "componentType": 5126,
      "count": 24,
      "min": [
        0.125,
        0
      ],
      "max": [
        0.875,
        1
      ],
      "type": "VEC2",
      "bufferView": 2,
      "byteOffset": 576
    },
    {
      "name": "cube_middle_top-Mesh_0_indices",
      "componentType": 5123,
      "count": 36,
      "min": [
        0
      ],
      "max": [
        23
      ],
      "type": "SCALAR",
      "bufferView": 3,
      "byteOffset": 216
    }
  ],
  "asset": {
    "generator": "obj2gltf",
    "version": "2.0"
  },
  "buffers": [
    {
      "name": "planiermaschine",
      "byteLength": 3360,
      "uri": "data:application/octet-stream;base64,"
    }
  ],
  "bufferViews": [
    {
      "name": "bufferView_0",
      "buffer": 0,
      "byteLength": 1152,
      "byteOffset": 0,
      "byteStride": 12,
      "target": 34962
    },
    {
      "name": "bufferView_1",
      "buffer": 0,
      "byteLength": 1152,
      "byteOffset": 1152,
      "byteStride": 12,
      "target": 34962
    },
    {
      "name": "bufferView_2",
      "buffer": 0,
      "byteLength": 768,
      "byteOffset": 2304,
      "byteStride": 8,
      "target": 34962
    },
    {
      "name": "bufferView_3",
      "buffer": 0,
      "byteLength": 288,
      "byteOffset": 3072,
      "target": 34963
    }
  ],
  "materials": [
    {
      "name": "Material",
      "pbrMetallicRoughness": {
        "baseColorFactor": [
          0.8,
          0.8,
          0.8,
          1
        ],
        "metallicFactor": 0,
        "roughnessFactor": 0.75
      },
      "emissiveFactor": [
        0,
        0,
        0
      ],
      "alphaMode": "OPAQUE",
      "doubleSided": false
    }
  ],
  "meshes": [
    {
      "name": "cube_left-Mesh",
      "primitives": [
        {
          "attributes": {
            "POSITION": 0,
            "NORMAL": 1,
            "TEXCOORD_0": 2
          },
          "indices": 3,
          "material": 0,
          "mode": 4
        }
      ]
    },
    {
      "name": "cube_middle_bottom-Mesh",
      "primitives": [
        {
          "attributes": {
            "POSITION": 4,
            "NORMAL": 5,
            "TEXCOORD_0": 6
          },
          "indices": 7,
          "material": 0,
          "mode": 4
        }
      ]
    },
    {
      "name": "cube_right-Mesh",
      "primitives": [
        {
          "attributes": {
            "POSITION": 8,
            "NORMAL": 9,
            "TEXCOORD_0": 10
          },
          "indices": 11,
          "material": 0,
          "mode": 4
        }
      ]
    },
    {
      "name": "cube_middle_top-Mesh",
      "primitives": [
        {
          "attributes": {
            "POSITION": 12,
            "NORMAL": 13,
            "TEXCOORD_0": 14
          },
          "indices": 15,
          "material": 0,
          "mode": 4
        }
      ]
    }
  ],
  "nodes": [
    {
      "name": "cube_left",
      "mesh": 0
    },
    {
      "name": "cube_middle_bottom",
      "mesh": 1
    },
    {
      "name": "cube_right",
      "mesh": 2
    },
    {
      "name": "cube_middle_top",
      "mesh": 3
    }
  ],
  "scene": 0,
  "scenes": [
    {
      "nodes": [
        0,
        1,
        2,
        3
      ]
    }
  ]
}
