{
  "accessors": [
    {
      "name": "table_side_front-Mesh_0_positions",
      "componentType": 5126,
      "count": 4,
      "min": [
        0.8500000238418579,
        0,
        -0.800000011920929
      ],
      "max": [
        0.8500000238418579,
        0.699999988079071,
        -0.20000000298023224
      ],
      "type": "VEC3",
      "bufferView": 0,
      "byteOffset": 0
    },
    {
      "name": "table_side_front-Mesh_0_normals",
      "componentType": 5126,
      "count": 4,
      "min": [
        1,
        0,
        0
      ],
      "max": [
        1,
        0,
        0
      ],
      "type": "VEC3",
      "bufferView": 1,
      "byteOffset": 0
    },
    {
      "name": "table_side_front-Mesh_0_texcoords",
      "componentType": 5126,
      "count": 4,
      "min": [
        0,
        0
      ],
      "max": [
        1,
        1
      ],
      "type": "VEC2",
      "bufferView": 2,
      "byteOffset": 0
    },
    {
      "name": "table_side_front-Mesh_0_indices",
      "componentType": 5123,
      "count": 6,
      "min": [
        0
      ],
      "max": [
        3
      ],
      "type": "SCALAR",
      "bufferView": 3,
      "byteOffset": 0
    },
    {
      "name": "table_top-Mesh_0_positions",
      "componentType": 5126,
      "count": 48,
      "min": [
        0.10000000149011612,
        0.699999988079071,
        -0.8999999761581421
      ],
      "max": [
        0.8999999761581421,
        0.800000011920929,
        -0.10000000149011612
      ],
      "type": "VEC3",
      "bufferView": 0,
      "byteOffset": 48
    },
    {
      "name": "table_top-Mesh_0_normals",
      "componentType": 5126,
      "count": 48,
      "min": [
        -1,
        -1,
        -1
      ],
      "max": [
        1,
        1,
        1
      ],
      "type": "VEC3",
      "bufferView": 1,
      "byteOffset": 48
    },
    {
      "name": "table_top-Mesh_0_texcoords",
      "componentType": 5126,
      "count": 48,
      "min": [
        0,
        0
      ],
      "max": [
        1,
        1
      ],
      "type": "VEC2",
      "bufferView": 2,
      "byteOffset": 32
    },
    {
      "name": "table_top-Mesh_0_indices",
      "componentType": 5123,
      "count": 84,
      "min": [
        0
      ],
      "max": [
        47
      ],
      "type": "SCALAR",
      "bufferView": 3,
      "byteOffset": 12
    },
    {
      "name": "table_side_back-Mesh_0_positions",
      "componentType": 5126,
      "count": 4,
      "min": [
        0.15000000596046448,
        0,
        -0.800000011920929
      ],
      "max": [
        0.15000000596046448,
        0.699999988079071,
        -0.20000000298023224
      ],
      "type": "VEC3",
      "bufferView": 0,
      "byteOffset": 624
    },
    {
      "name": "table_side_back-Mesh_0_normals",
      "componentType": 5126,
      "count": 4,
      "min": [
        1,
        0,
        0
      ],
      "max": [
        1,
        0,
        0
      ],
      "type": "VEC3",
      "bufferView": 1,
      "byteOffset": 624
    },
    {
      "name": "table_side_back-Mesh_0_texcoords",
      "componentType": 5126,
      "count": 4,
      "min": [
        0,
        0
      ],
      "max": [
        1,
        1
      ],
      "type": "VEC2",
      "bufferView": 2,
      "byteOffset": 416
    },
    {
      "name": "table_side_back-Mesh_0_indices",
      "componentType": 5123,
      "count": 6,
      "min": [
        0
      ],
      "max": [
        3
      ],
      "type": "SCALAR",
      "bufferView": 3,
      "byteOffset": 180
    },
    {
      "name": "table_side_right-Mesh_0_positions",
      "componentType": 5126,
      "count": 4,
      "min": [
        0.20000000298023224,
        0,
        -0.8500000238418579
      ],
      "max": [
        0.800000011920929,
        0.699999988079071,
        -0.8500000238418579
      ],
      "type": "VEC3",
      "bufferView": 0,
      "byteOffset": 672
    },
    {
      "name": "table_side_right-Mesh_0_normals",
      "componentType": 5126,
      "count": 4,
      "min": [
        0,
        0,
        -1
      ],
      "max": [
        0,
        0,
        -1
      ],
      "type": "VEC3",
      "bufferView": 1,
      "byteOffset": 672
    },
    {
      "name": "table_side_right-Mesh_0_texcoords",
      "componentType": 5126,
      "count": 4,
      "min": [
        0,
        0
      ],
      "max": [
        1,
        1
      ],
      "type": "VEC2",
      "bufferView": 2,
      "byteOffset": 448
    },
    {
      "name": "table_side_right-Mesh_0_indices",
      "componentType": 5123,
      "count": 6,
      "min": [
        0
      ],
      "max": [
        3
      ],
      "type": "SCALAR",
      "bufferView": 3,
      "byteOffset": 192
    },
    {
      "name": "table_side_left-Mesh_0_positions",
      "componentType": 5126,
      "count": 4,
      "min": [
        0.20000000298023224,
        0,
        -0.15000000596046448
      ],
      "max": [
        0.800000011920929,
        0.699999988079071,
        -0.15000000596046448
      ],
      "type": "VEC3",
      "bufferView": 0,
      "byteOffset": 720
    },
    {
      "name": "table_side_left-Mesh_0_normals",
      "componentType": 5126,
      "count": 4,
      "min": [
        0,
        0,
        -1
      ],
      "max": [
        0,
        0,
        -1
      ],
      "type": "VEC3",
      "bufferView": 1,
      "byteOffset": 720
    },
    {
      "name": "table_side_left-Mesh_0_texcoords",
      "componentType": 5126,
      "count": 4,
      "min": [
        0,
        0
      ],
      "max": [
        1,
        1
      ],
      "type": "VEC2",
      "bufferView": 2,
      "byteOffset": 480
    },
    {
      "name": "table_side_left-Mesh_0_indices",
      "componentType": 5123,
      "count": 6,
      "min": [
        0
      ],
      "max": [
        3
      ],
      "type": "SCALAR",
      "bufferView": 3,
      "byteOffset": 204
    },
    {
      "name": "table_leg_front_right-Mesh_0_positions",
      "componentType": 5126,
      "count": 24,
      "min": [
        0.800000011920929,
        0,
        -0.8999999761581421
      ],
      "max": [
        0.8999999761581421,
        0.699999988079071,
        -0.800000011920929
      ],
      "type": "VEC3",
      "bufferView": 0,
      "byteOffset": 768
    },
    {
      "name": "table_leg_front_right-Mesh_0_normals",
      "componentType": 5126,
      "count": 24,
      "min": [
        -1,
        -1,
        -1
      ],
      "max": [
        1,
        1,
        1
      ],
      "type": "VEC3",
      "bufferView": 1,
      "byteOffset": 768
    },
    {
      "name": "table_leg_front_right-Mesh_0_texcoords",
      "componentType": 5126,
      "count": 24,
      "min": [
        0.125,
        0
      ],
      "max": [
        0.875,
        1
      ],
      "type": "VEC2",
      "bufferView": 2,
      "byteOffset": 512
    },
    {
      "name": "table_leg_front_right-Mesh_0_indices",
      "componentType": 5123,
      "count": 36,
      "min": [
        0
      ],
      "max": [
        23
      ],
      "type": "SCALAR",
      "bufferView": 3,
      "byteOffset": 216
    },
    {
      "name": "table_leg_back_right-Mesh_0_positions",
      "componentType": 5126,
      "count": 24,
      "min": [
        0.10000000149011612,
        0,
        -0.8999999761581421
      ],
      "max": [
        0.20000000298023224,
        0.699999988079071,
        -0.800000011920929
      ],
      "type": "VEC3",
      "bufferView": 0,
      "byteOffset": 1056
    },
    {
      "name": "table_leg_back_right-Mesh_0_normals",
      "componentType": 5126,
      "count": 24,
      "min": [
        -1,
        -1,
        -1
      ],
      "max": [
        1,
        1,
        1
      ],
      "type": "VEC3",
      "bufferView": 1,
      "byteOffset": 1056
    },
    {
      "name": "table_leg_back_right-Mesh_0_texcoords",
      "componentType": 5126,
      "count": 24,
      "min": [
        0.125,
        0
      ],
      "max": [
        0.875,
        1
      ],
      "type": "VEC2",
      "bufferView": 2,
      "byteOffset": 704
    },
    {
      "name": "table_leg_back_right-Mesh_0_indices",
      "componentType": 5123,
      "count": 36,
      "min": [
        0
      ],
      "max": [
        23
      ],
      "type": "SCALAR",
      "bufferView": 3,
      "byteOffset": 288
    },
    {
      "name": "table_leg_back_left-Mesh_0_positions",
      "componentType": 5126,
      "count": 24,
      "min": [
        0.10000000149011612,
        0,
        -0.20000000298023224
      ],
      "max": [
        0.20000000298023224,
        0.699999988079071,
        -0.10000000149011612
      ],
      "type": "VEC3",
      "bufferView": 0,
      "byteOffset": 1344
    },
    {
      "name": "table_leg_back_left-Mesh_0_normals",
      "componentType": 5126,
      "count": 24,
      "min": [
        -1,
        -1,
        -1
      ],
      "max": [
        1,
        1,
        1
      ],
      "type": "VEC3",
      "bufferView": 1,
      "byteOffset": 1344
    },
    {
      "name": "table_leg_back_left-Mesh_0_texcoords",
      "componentType": 5126,
      "count": 24,
      "min": [
        0.125,
        0
      ],
      "max": [
        0.875,
        1
      ],
      "type": "VEC2",
      "bufferView": 2,
      "byteOffset": 896
    },
    {
      "name": "table_leg_back_left-Mesh_0_indices",
      "componentType": 5123,
      "count": 36,
      "min": [
        0
      ],
      "max": [
        23
      ],
      "type": "SCALAR",
      "bufferView": 3,
      "byteOffset": 360
    },
    {
      "name": "table_leg_front_left-Mesh_0_positions",
      "componentType": 5126,
      "count": 24,
      "min": [
        0.800000011920929,
        0,
        -0.20000000298023224
      ],
      "max": [
        0.8999999761581421,
        0.699999988079071,
        -0.10000000149011612
      ],
      "type": "VEC3",
      "bufferView": 0,
      "byteOffset": 1632
    },
    {
      "name": "table_leg_front_left-Mesh_0_normals",
      "componentType": 5126,
      "count": 24,
      "min": [
        -1,
        -1,
        -1
      ],
      "max": [
        1,
        1,
        1
      ],
      "type": "VEC3",
      "bufferView": 1,
      "byteOffset": 1632
    },
    {
      "name": "table_leg_front_left-Mesh_0_texcoords",
      "componentType": 5126,
      "count": 24,
      "min": [
        0.125,
        0
      ],
      "max": [
        0.875,
        1
      ],
      "type": "VEC2",
      "bufferView": 2,
      "byteOffset": 1088
    },
    {
      "name": "table_leg_front_left-Mesh_0_indices",
      "componentType": 5123,
      "count": 36,
      "min": [
        0
      ],
      "max": [
        23
      ],
      "type": "SCALAR",
      "bufferView": 3,
      "byteOffset": 432
    },
    {
      "name": "table_lid-Mesh_0_positions",
      "componentType": 5126,
      "count": 24,
      "min": [
        0.15000000596046448,
        0.800000011920929,
        -0.8500000238418579
      ],
      "max": [
        0.8500000238418579,
        0.8500000238418579,
        -0.15000000596046448
      ],
      "type": "VEC3",
      "bufferView": 0,
      "byteOffset": 1920
    },
    {
      "name": "table_lid-Mesh_0_normals",
      "componentType": 5126,
      "count": 24,
      "min": [
        -1,
        -1,
        -1
      ],
      "max": [
        1,
        1,
        1
      ],
      "type": "VEC3",
      "bufferView": 1,
      "byteOffset": 1920
    },
    {
      "name": "table_lid-Mesh_0_texcoords",
      "componentType": 5126,
      "count": 24,
      "min": [
        0.125,
        0
      ],
      "max": [
        0.875,
        1
      ],
      "type": "VEC2",
      "bufferView": 2,
      "byteOffset": 1280
    },
    {
      "name": "table_lid-Mesh_0_indices",
      "componentType": 5123,
      "count": 36,
      "min": [
        0
      ],
      "max": [
        23
      ],
      "type": "SCALAR",
      "bufferView": 3,
      "byteOffset": 504
    },
    {
      "name": "table_bar-Mesh_0_positions",
      "componentType": 5126,
      "count": 102,
      "min": [
        0.125,
        0.800000011920929,
        -0.75
      ],
      "max": [
        0.15000000596046448,
        0.8500000238418579,
        -0.25
      ],
      "type": "VEC3",
      "bufferView": 0,
      "byteOffset": 2208
    },
    {
      "name": "table_bar-Mesh_0_normals",
      "componentType": 5126,
      "count": 102,
      "min": [
        -0.9951865673065186,
        -0.9951865673065186,
        -1
      ],
      "max": [
        1,
        0.9951865673065186,
        1
      ],
      "type": "VEC3",
      "bufferView": 1,
      "byteOffset": 2208
    },
    {
      "name": "table_bar-Mesh_0_texcoords",
      "componentType": 5126,
      "count": 102,
      "min": [
        0,
        0
      ],
      "max": [
        1,
        0.5
      ],
      "type": "VEC2",
      "bufferView": 2,
      "byteOffset": 1472
    },
    {
      "name": "table_bar-Mesh_0_indices",
      "componentType": 5123,
      "count": 192,
      "min": [
        0
      ],
      "max": [
        101
      ],
      "type": "SCALAR",
      "bufferView": 3,
      "byteOffset": 576
    },
    {
      "name": "table_handle-Mesh_0_positions",
      "componentType": 5126,
      "count": 48,
      "min": [
        0.8500000238418579,
        0.8100000023841858,
        -0.6000000238418579
      ],
      "max": [
        0.949999988079071,
        0.8399999737739563,
        -0.4000000059604645
      ],
      "type": "VEC3",
      "bufferView": 0,
      "byteOffset": 3432
    },
    {
      "name": "table_handle-Mesh_0_normals",
      "componentType": 5126,
      "count": 48,
      "min": [
        -1,
        -1,
        -1
      ],
      "max": [
        1,
        1,
        1
      ],
      "type": "VEC3",
      "bufferView": 1,
      "byteOffset": 3432
    },
    {
      "name": "table_handle-Mesh_0_texcoords",
      "componentType": 5126,
      "count": 48,
      "min": [
        0.125,
        0
      ],
      "max": [
        0.875,
        1
      ],
      "type": "VEC2",
      "bufferView": 2,
      "byteOffset": 2288
    },
    {
      "name": "table_handle-Mesh_0_indices",
      "componentType": 5123,
      "count": 84,
      "min": [
        0
      ],
      "max": [
        47
      ],
      "type": "SCALAR",
      "bufferView": 3,
      "byteOffset": 960
    },
    {
      "name": "table_side_bottom-Mesh_0_positions",
      "componentType": 5126,
      "count": 4,
      "min": [
        0.15000000596046448,
        0,
        -0.8500000238418579
      ],
      "max": [
        0.8500000238418579,
        0,
        -0.15000000596046448
      ],
      "type": "VEC3",
      "bufferView": 0,
      "byteOffset": 4008
    },
    {
      "name": "table_side_bottom-Mesh_0_normals",
      "componentType": 5126,
      "count": 4,
      "min": [
        0,
        1,
        0
      ],
      "max": [
        0,
        1,
        0
      ],
      "type": "VEC3",
      "bufferView": 1,
      "byteOffset": 4008
    },
    {
      "name": "table_side_bottom-Mesh_0_texcoords",
      "componentType": 5126,
      "count": 4,
      "min": [
        0,
        0
      ],
      "max": [
        1,
        1
      ],
      "type": "VEC2",
      "bufferView": 2,
      "byteOffset": 2672
    },
    {
      "name": "table_side_bottom-Mesh_0_indices",
      "componentType": 5123,
      "count": 6,
      "min": [
        0
      ],
      "max": [
        3
      ],
      "type": "SCALAR",
      "bufferView": 3,
      "byteOffset": 1128
    },
    {
      "name": "pipe_left_right-Mesh_0_positions",
      "componentType": 5126,
      "count": 810,
      "min": [
        0.25,
        0.10000000149011612,
        -1.0000009536743164
      ],
      "max": [
        0.75,
        0.6000000238418579,
        -9.999999974752427e-7
      ],
      "type": "VEC3",
      "bufferView": 0,
      "byteOffset": 4056
    },
    {
      "name": "pipe_left_right-Mesh_0_normals",
      "componentType": 5126,
      "count": 810,
      "min": [
        -1,
        -1,
        -1
      ],
      "max": [
        1,
        1,
        1
      ],
      "type": "VEC3",
      "bufferView": 1,
      "byteOffset": 4056
    },
    {
      "name": "pipe_left_right-Mesh_0_texcoords",
      "componentType": 5126,
      "count": 810,
      "min": [
        0,
        0
      ],
      "max": [
        1,
        1
      ],
      "type": "VEC2",
      "bufferView": 2,
      "byteOffset": 2704
    },
    {
      "name": "pipe_left_right-Mesh_0_indices",
      "componentType": 5123,
      "count": 2376,
      "min": [
        0
      ],
      "max": [
        809
      ],
      "type": "SCALAR",
      "bufferView": 3,
      "byteOffset": 1140
    },
    {
      "name": "pipe_front_back-Mesh_0_positions",
      "componentType": 5126,
      "count": 810,
      "min": [
        -9.999999974752427e-7,
        0.10000000149011612,
        -0.75
      ],
      "max": [
        0.9999989867210388,
        0.6000000238418579,
        -0.25
      ],
      "type": "VEC3",
      "bufferView": 0,
      "byteOffset": 13776
    },
    {
      "name": "pipe_front_back-Mesh_0_normals",
      "componentType": 5126,
      "count": 810,
      "min": [
        -1,
        -1,
        -1
      ],
      "max": [
        1,
        1,
        1
      ],
      "type": "VEC3",
      "bufferView": 1,
      "byteOffset": 13776
    },
    {
      "name": "pipe_front_back-Mesh_0_texcoords",
      "componentType": 5126,
      "count": 810,
      "min": [
        0,
        0
      ],
      "max": [
        1,
        1
      ],
      "type": "VEC2",
      "bufferView": 2,
      "byteOffset": 9184
    },
    {
      "name": "pipe_front_back-Mesh_0_indices",
      "componentType": 5123,
      "count": 2376,
      "min": [
        0
      ],
      "max": [
        809
      ],
      "type": "SCALAR",
      "bufferView": 3,
      "byteOffset": 5892
    }
  ],
  "asset": {
    "generator": "obj2gltf",
    "version": "2.0"
  },
  "buffers": [
    {
      "name": "brennerofen",
      "byteLength": 73300,
      "uri": "data:application/octet-stream;base64,"
    }
  ],
  "bufferViews": [
    {
      "name": "bufferView_0",
      "buffer": 0,
      "byteLength": 23496,
      "byteOffset": 0,
      "byteStride": 12,
      "target": 34962
    },
    {
      "name": "bufferView_1",
      "buffer": 0,
      "byteLength": 23496,
      "byteOffset": 23496,
      "byteStride": 12,
      "target": 34962
    },
    {
      "name": "bufferView_2",
      "buffer": 0,
      "byteLength": 15664,
      "byteOffset": 46992,
      "byteStride": 8,
      "target": 34962
    },
    {
      "name": "bufferView_3",
      "buffer": 0,
      "byteLength": 10644,
      "byteOffset": 62656,
      "target": 34963
    }
  ],
  "materials": [
    {
      "name": "default",
      "pbrMetallicRoughness": {
        "baseColorFactor": [
          0.5,
          0.5,
          0.5,
          1
        ],
        "metallicFactor": 0,
        "roughnessFactor": 1
      },
      "emissiveFactor": [
        0,
        0,
        0
      ],
      "alphaMode": "OPAQUE",
      "doubleSided": false
    }
  ],
  "meshes": [
    {
      "name": "table_side_front-Mesh",
      "primitives": [
        {
          "attributes": {
            "POSITION": 0,
            "NORMAL": 1,
            "TEXCOORD_0": 2
          },
          "indices": 3,
          "material": 0,
          "mode": 4
        }
      ]
    },
    {
      "name": "table_top-Mesh",
      "primitives": [
        {
          "attributes": {
            "POSITION": 4,
            "NORMAL": 5,
            "TEXCOORD_0": 6
          },
          "indices": 7,
          "material": 0,
          "mode": 4
        }
      ]
    },
    {
      "name": "table_side_back-Mesh",
      "primitives": [
        {
          "attributes": {
            "POSITION": 8,
            "NORMAL": 9,
            "TEXCOORD_0": 10
          },
          "indices": 11,
          "material": 0,
          "mode": 4
        }
      ]
    },
    {
      "name": "table_side_right-Mesh",
      "primitives": [
        {
          "attributes": {
            "POSITION": 12,
            "NORMAL": 13,
            "TEXCOORD_0": 14
          },
          "indices": 15,
          "material": 0,
          "mode": 4
        }
      ]
    },
    {
      "name": "table_side_left-Mesh",
      "primitives": [
        {
          "attributes": {
            "POSITION": 16,
            "NORMAL": 17,
            "TEXCOORD_0": 18
          },
          "indices": 19,
          "material": 0,
          "mode": 4
        }
      ]
    },
    {
      "name": "table_leg_front_right-Mesh",
      "primitives": [
        {
          "attributes": {
            "POSITION": 20,
            "NORMAL": 21,
            "TEXCOORD_0": 22
          },
          "indices": 23,
          "material": 0,
          "mode": 4
        }
      ]
    },
    {
      "name": "table_leg_back_right-Mesh",
      "primitives": [
        {
          "attributes": {
            "POSITION": 24,
            "NORMAL": 25,
            "TEXCOORD_0": 26
          },
          "indices": 27,
          "material": 0,
          "mode": 4
        }
      ]
    },
    {
      "name": "table_leg_back_left-Mesh",
      "primitives": [
        {
          "attributes": {
            "POSITION": 28,
            "NORMAL": 29,
            "TEXCOORD_0": 30
          },
          "indices": 31,
          "material": 0,
          "mode": 4
        }
      ]
    },
    {
      "name": "table_leg_front_left-Mesh",
      "primitives": [
        {
          "attributes": {
            "POSITION": 32,
            "NORMAL": 33,
            "TEXCOORD_0": 34
          },
          "indices": 35,
          "material": 0,
          "mode": 4
        }
      ]
    },
    {
      "name": "table_lid-Mesh",
      "primitives": [
        {
          "attributes": {
            "POSITION": 36,
            "NORMAL": 37,
            "TEXCOORD_0": 38
          },
          "indices": 39,
          "material": 0,
          "mode": 4
        }
      ]
    },
    {
      "name": "table_bar-Mesh",
      "primitives": [
        {
          "attributes": {
            "POSITION": 40,
            "NORMAL": 41,
            "TEXCOORD_0": 42
          },
          "indices": 43,
          "material": 0,
          "mode": 4
        }
      ]
    },
    {
      "name": "table_handle-Mesh",
      "primitives": [
        {
          "attributes": {
            "POSITION": 44,
            "NORMAL": 45,
            "TEXCOORD_0": 46
          },
          "indices": 47,
          "material": 0,
          "mode": 4
        }
      ]
    },
    {
      "name": "table_side_bottom-Mesh",
      "primitives": [
        {
          "attributes": {
            "POSITION": 48,
            "NORMAL": 49,
            "TEXCOORD_0": 50
          },
          "indices": 51,
          "material": 0,
          "mode": 4
        }
      ]
    },
    {
      "name": "pipe_left_right-Mesh",
      "primitives": [
        {
          "attributes": {
            "POSITION": 52,
            "NORMAL": 53,
            "TEXCOORD_0": 54
          },
          "indices": 55,
          "material": 0,
          "mode": 4
        }
      ]
    },
    {
      "name": "pipe_front_back-Mesh",
      "primitives": [
        {
          "attributes": {
            "POSITION": 56,
            "NORMAL": 57,
            "TEXCOORD_0": 58
          },
          "indices": 59,
          "material": 0,
          "mode": 4
        }
      ]
    }
  ],
  "nodes": [
    {
      "name": "table_side_front",
      "mesh": 0
    },
    {
      "name": "table_top",
      "mesh": 1
    },
    {
      "name": "table_side_back",
      "mesh": 2
    },
    {
      "name": "table_side_right",
      "mesh": 3
    },
    {
      "name": "table_side_left",
      "mesh": 4
    },
    {
      "name": "table_leg_front_right",
      "mesh": 5
    },
    {
      "name": "table_leg_back_right",
      "mesh": 6
    },
    {
      "name": "table_leg_back_left",
      "mesh": 7
    },
    {
      "name": "table_leg_front_left",
      "mesh": 8
    },
    {
      "name": "table_lid",
      "mesh": 9
    },
    {
      "name": "table_bar",
      "mesh": 10
    },
    {
      "name": "table_handle",
      "mesh": 11
    },
    {
      "name": "table_side_bottom",
      "mesh": 12
    },
    {
      "name": "pipe_left_right",
      "mesh": 13
    },
    {
      "name": "pipe_front_back",
      "mesh": 14
    }
  ],
  "scene": 0,
  "scenes": [
    {
      "nodes": [
        0,
        1,
        2,
        3,
        4,
        5,
        6,
        7,
        8,
        9,
        10,
        11,
        12,
        13,
        14
      ]
    }
  ]
}
