{
  "accessors": [
    {
      "name": "15766_Abstract_Chair_Concave_Cube_1_0_positions",
      "componentType": 5126,
      "count": 5544,
      "min": [
        -53.90169906616211,
        -60.5177001953125,
        0.1981000006198883
      ],
      "max": [
        67.99469757080078,
        64.14109802246094,
        122.08709716796875
      ],
      "type": "VEC3",
      "bufferView": 0,
      "byteOffset": 0
    },
    {
      "name": "15766_Abstract_Chair_Concave_Cube_1_0_normals",
      "componentType": 5126,
      "count": 5544,
      "min": [
        -1,
        -1,
        -1
      ],
      "max": [
        1,
        1,
        1
      ],
      "type": "VEC3",
      "bufferView": 1,
      "byteOffset": 0
    },
    {
      "name": "15766_Abstract_Chair_Concave_Cube_1_0_texcoords",
      "componentType": 5126,
      "count": 5544,
      "min": [
        -0.19470000267028809,
        0
      ],
      "max": [
        1,
        1.0121999979019165
      ],
      "type": "VEC2",
      "bufferView": 2,
      "byteOffset": 0
    },
    {
      "name": "15766_Abstract_Chair_Concave_Cube_1_0_indices",
      "componentType": 5123,
      "count": 30336,
      "min": [
        0
      ],
      "max": [
        5543
      ],
      "type": "SCALAR",
      "bufferView": 3,
      "byteOffset": 0
    }
  ],
  "asset": {
    "generator": "obj2gltf",
    "version": "2.0"
  },
  "buffers": [
    {
      "name": "cube",
      "byteLength": 238080,
      "uri": "data:application/octet-stream;base64,"
    }
  ],
  "bufferViews": [
    {
      "name": "bufferView_0",
      "buffer": 0,
      "byteLength": 66528,
      "byteOffset": 0,
      "byteStride": 12,
      "target": 34962
    },
    {
      "name": "bufferView_1",
      "buffer": 0,
      "byteLength": 66528,
      "byteOffset": 66528,
      "byteStride": 12,
      "target": 34962
    },
    {
      "name": "bufferView_2",
      "buffer": 0,
      "byteLength": 44352,
      "byteOffset": 133056,
      "byteStride": 8,
      "target": 34962
    },
    {
      "name": "bufferView_3",
      "buffer": 0,
      "byteLength": 60672,
      "byteOffset": 177408,
      "target": 34963
    }
  ],
  "materials": [
    {
      "name": "_15766_Abstract_Chair_Concave_Cube_v1default",
      "pbrMetallicRoughness": {
        "baseColorFactor": [
          0.5,
          0.5,
          0.5,
          1
        ],
        "metallicFactor": 0,
        "roughnessFactor": 1
      },
      "emissiveFactor": [
        0,
        0,
        0
      ],
      "alphaMode": "OPAQUE",
      "doubleSided": false
    }
  ],
  "meshes": [
    {
      "name": "15766_Abstract_Chair_Concave_Cube_1",
      "primitives": [
        {
          "attributes": {
            "POSITION": 0,
            "NORMAL": 1,
            "TEXCOORD_0": 2
          },
          "indices": 3,
          "material": 0,
          "mode": 4
        }
      ]
    }
  ],
  "nodes": [
    {
      "name": "15766_Abstract_Chair_Concave_Cube",
      "mesh": 0
    }
  ],
  "scene": 0,
  "scenes": [
    {
      "nodes": [
        0
      ]
    }
  ]
}
