{
  "accessors": [
    {
      "name": "pipe_cylinder-Mesh_0_positions",
      "componentType": 5126,
      "count": 1054,
      "min": [
        0.27550598978996277,
        0.0932139977812767,
        0.12467800080776215
      ],
      "max": [
        0.9027079939842224,
        0.7318289875984192,
        0.5752410292625427
      ],
      "type": "VEC3",
      "bufferView": 0,
      "byteOffset": 0
    },
    {
      "name": "pipe_cylinder-Mesh_0_normals",
      "componentType": 5126,
      "count": 1054,
      "min": [
        -0.9999745488166809,
        -1,
        -0.9999995827674866
      ],
      "max": [
        0.9999990463256836,
        1,
        0.9999998807907104
      ],
      "type": "VEC3",
      "bufferView": 1,
      "byteOffset": 0
    },
    {
      "name": "pipe_cylinder-Mesh_0_texcoords",
      "componentType": 5126,
      "count": 1054,
      "min": [
        0,
        0
      ],
      "max": [
        1,
        0.9900000095367432
      ],
      "type": "VEC2",
      "bufferView": 2,
      "byteOffset": 0
    },
    {
      "name": "pipe_cylinder-Mesh_0_indices",
      "componentType": 5123,
      "count": 5382,
      "min": [
        0
      ],
      "max": [
        1053
      ],
      "type": "SCALAR",
      "bufferView": 3,
      "byteOffset": 0
    },
    {
      "name": "pipe_entrance-Mesh_0_positions",
      "componentType": 5126,
      "count": 364,
      "min": [
        0.25,
        9.999999974752427e-7,
        0.10000000149011612
      ],
      "max": [
        0.75,
        0.10000099986791611,
        0.5999990105628967
      ],
      "type": "VEC3",
      "bufferView": 0,
      "byteOffset": 12648
    },
    {
      "name": "pipe_entrance-Mesh_0_normals",
      "componentType": 5126,
      "count": 364,
      "min": [
        -0.9999990463256836,
        -1,
        -0.9999990463256836
      ],
      "max": [
        0.9999990463256836,
        1,
        0.9999990463256836
      ],
      "type": "VEC3",
      "bufferView": 1,
      "byteOffset": 12648
    },
    {
      "name": "pipe_entrance-Mesh_0_texcoords",
      "componentType": 5126,
      "count": 364,
      "min": [
        0,
        0
      ],
      "max": [
        1,
        1
      ],
      "type": "VEC2",
      "bufferView": 2,
      "byteOffset": 8432
    },
    {
      "name": "pipe_entrance-Mesh_0_indices",
      "componentType": 5123,
      "count": 1056,
      "min": [
        0
      ],
      "max": [
        363
      ],
      "type": "SCALAR",
      "bufferView": 3,
      "byteOffset": 10764
    },
    {
      "name": "pipe_exit-Mesh_0_positions",
      "componentType": 5126,
      "count": 366,
      "min": [
        0.89826500415802,
        0.2500070035457611,
        0.09966699779033661
      ],
      "max": [
        1.001736044883728,
        0.7499920129776001,
        0.6003339886665344
      ],
      "type": "VEC3",
      "bufferView": 0,
      "byteOffset": 17016
    },
    {
      "name": "pipe_exit-Mesh_0_normals",
      "componentType": 5126,
      "count": 366,
      "min": [
        -0.9999762177467346,
        -0.9999687671661377,
        -0.9999449849128723
      ],
      "max": [
        0.9999762177467346,
        0.9999687671661377,
        0.9999449849128723
      ],
      "type": "VEC3",
      "bufferView": 1,
      "byteOffset": 17016
    },
    {
      "name": "pipe_exit-Mesh_0_texcoords",
      "componentType": 5126,
      "count": 366,
      "min": [
        0,
        0
      ],
      "max": [
        1,
        1
      ],
      "type": "VEC2",
      "bufferView": 2,
      "byteOffset": 11344
    },
    {
      "name": "pipe_exit-Mesh_0_indices",
      "componentType": 5123,
      "count": 1056,
      "min": [
        0
      ],
      "max": [
        365
      ],
      "type": "SCALAR",
      "bufferView": 3,
      "byteOffset": 12876
    }
  ],
  "asset": {
    "generator": "obj2gltf",
    "version": "2.0"
  },
  "buffers": [
    {
      "name": "pipe_curved",
      "byteLength": 72076,
      "uri": "data:application/octet-stream;base64,"
    }
  ],
  "bufferViews": [
    {
      "name": "bufferView_0",
      "buffer": 0,
      "byteLength": 21408,
      "byteOffset": 0,
      "byteStride": 12,
      "target": 34962
    },
    {
      "name": "bufferView_1",
      "buffer": 0,
      "byteLength": 21408,
      "byteOffset": 21408,
      "byteStride": 12,
      "target": 34962
    },
    {
      "name": "bufferView_2",
      "buffer": 0,
      "byteLength": 14272,
      "byteOffset": 42816,
      "byteStride": 8,
      "target": 34962
    },
    {
      "name": "bufferView_3",
      "buffer": 0,
      "byteLength": 14988,
      "byteOffset": 57088,
      "target": 34963
    }
  ],
  "materials": [
    {
      "name": "Material.007",
      "pbrMetallicRoughness": {
        "baseColorFactor": [
          0.8,
          0.8,
          0.8,
          0.2
        ],
        "metallicFactor": 0,
        "roughnessFactor": 0.36753607199999994
      },
      "emissiveFactor": [
        0,
        0,
        0
      ],
      "alphaMode": "BLEND",
      "doubleSided": true
    }
  ],
  "meshes": [
    {
      "name": "pipe_cylinder-Mesh",
      "primitives": [
        {
          "attributes": {
            "POSITION": 0,
            "NORMAL": 1,
            "TEXCOORD_0": 2
          },
          "indices": 3,
          "material": 0,
          "mode": 4
        }
      ]
    },
    {
      "name": "pipe_entrance-Mesh",
      "primitives": [
        {
          "attributes": {
            "POSITION": 4,
            "NORMAL": 5,
            "TEXCOORD_0": 6
          },
          "indices": 7,
          "material": 0,
          "mode": 4
        }
      ]
    },
    {
      "name": "pipe_exit-Mesh",
      "primitives": [
        {
          "attributes": {
            "POSITION": 8,
            "NORMAL": 9,
            "TEXCOORD_0": 10
          },
          "indices": 11,
          "material": 0,
          "mode": 4
        }
      ]
    }
  ],
  "nodes": [
    {
      "name": "pipe_cylinder",
      "mesh": 0
    },
    {
      "name": "pipe_entrance",
      "mesh": 1
    },
    {
      "name": "pipe_exit",
      "mesh": 2
    }
  ],
  "scene": 0,
  "scenes": [
    {
      "nodes": [
        0,
        1,
        2
      ]
    }
  ]
}
