{
  "accessors": [
    {
      "name": "Cube-Mesh_0_positions",
      "componentType": 5126,
      "count": 541,
      "min": [
        0.20544199645519257,
        0.19915199279785156,
        0.04843800142407417
      ],
      "max": [
        0.8054419755935669,
        0.8009430170059204,
        0.6502289772033691
      ],
      "type": "VEC3",
      "bufferView": 0,
      "byteOffset": 0
    },
    {
      "name": "Cube-Mesh_0_normals",
      "componentType": 5126,
      "count": 541,
      "min": [
        -1,
        -0.9999955296516418,
        -0.9999955296516418
      ],
      "max": [
        1,
        0.9999955296516418,
        0.9999955296516418
      ],
      "type": "VEC3",
      "bufferView": 1,
      "byteOffset": 0
    },
    {
      "name": "Cube-Mesh_0_texcoords",
      "componentType": 5126,
      "count": 541,
      "min": [
        0,
        0
      ],
      "max": [
        1,
        1
      ],
      "type": "VEC2",
      "bufferView": 2,
      "byteOffset": 0
    },
    {
      "name": "Cube-Mesh_0_indices",
      "componentType": 5123,
      "count": 1572,
      "min": [
        0
      ],
      "max": [
        540
      ],
      "type": "SCALAR",
      "bufferView": 3,
      "byteOffset": 0
    },
    {
      "name": "pipe_cylinder_front-Mesh_0_positions",
      "componentType": 5126,
      "count": 738,
      "min": [
        0.099993996322155,
        0.2749989926815033,
        0.12422099709510803
      ],
      "max": [
        0.9000059962272644,
        0.7250009775161743,
        0.5757780075073242
      ],
      "type": "VEC3",
      "bufferView": 0,
      "byteOffset": 6492
    },
    {
      "name": "pipe_cylinder_front-Mesh_0_normals",
      "componentType": 5126,
      "count": 738,
      "min": [
        -1,
        -0.999995768070221,
        -0.9999955296516418
      ],
      "max": [
        1,
        0.999995768070221,
        0.9999955296516418
      ],
      "type": "VEC3",
      "bufferView": 1,
      "byteOffset": 6492
    },
    {
      "name": "pipe_cylinder_front-Mesh_0_texcoords",
      "componentType": 5126,
      "count": 738,
      "min": [
        0,
        0
      ],
      "max": [
        1,
        0.9900000095367432
      ],
      "type": "VEC2",
      "bufferView": 2,
      "byteOffset": 4328
    },
    {
      "name": "pipe_cylinder_front-Mesh_0_indices",
      "componentType": 5123,
      "count": 2172,
      "min": [
        0
      ],
      "max": [
        737
      ],
      "type": "SCALAR",
      "bufferView": 3,
      "byteOffset": 3144
    },
    {
      "name": "pipe_cylinder_side-Mesh_0_positions",
      "componentType": 5126,
      "count": 735,
      "min": [
        0.2749989926815033,
        0.09933199733495712,
        0.12301400303840637
      ],
      "max": [
        0.7250000238418579,
        0.9006680250167847,
        0.5769850015640259
      ],
      "type": "VEC3",
      "bufferView": 0,
      "byteOffset": 15348
    },
    {
      "name": "pipe_cylinder_side-Mesh_0_normals",
      "componentType": 5126,
      "count": 735,
      "min": [
        -1,
        -0.9999955296516418,
        -0.9999955296516418
      ],
      "max": [
        1,
        0.9999955296516418,
        0.9999955296516418
      ],
      "type": "VEC3",
      "bufferView": 1,
      "byteOffset": 15348
    },
    {
      "name": "pipe_cylinder_side-Mesh_0_texcoords",
      "componentType": 5126,
      "count": 735,
      "min": [
        0,
        0
      ],
      "max": [
        1,
        0.9900000095367432
      ],
      "type": "VEC2",
      "bufferView": 2,
      "byteOffset": 10232
    },
    {
      "name": "pipe_cylinder_side-Mesh_0_indices",
      "componentType": 5123,
      "count": 2175,
      "min": [
        0
      ],
      "max": [
        734
      ],
      "type": "SCALAR",
      "bufferView": 3,
      "byteOffset": 7488
    },
    {
      "name": "pipe_exit_front-Mesh_0_positions",
      "componentType": 5126,
      "count": 364,
      "min": [
        0.8999930024147034,
        0.2500010132789612,
        0.10000000149011612
      ],
      "max": [
        1.0000070333480835,
        0.7499989867210388,
        0.6000000238418579
      ],
      "type": "VEC3",
      "bufferView": 0,
      "byteOffset": 24168
    },
    {
      "name": "pipe_exit_front-Mesh_0_normals",
      "componentType": 5126,
      "count": 364,
      "min": [
        -1,
        -0.9999955296516418,
        -0.9999955296516418
      ],
      "max": [
        1,
        0.9999955296516418,
        0.9999955296516418
      ],
      "type": "VEC3",
      "bufferView": 1,
      "byteOffset": 24168
    },
    {
      "name": "pipe_exit_front-Mesh_0_texcoords",
      "componentType": 5126,
      "count": 364,
      "min": [
        0,
        0
      ],
      "max": [
        1,
        1
      ],
      "type": "VEC2",
      "bufferView": 2,
      "byteOffset": 16112
    },
    {
      "name": "pipe_exit_front-Mesh_0_indices",
      "componentType": 5123,
      "count": 1056,
      "min": [
        0
      ],
      "max": [
        363
      ],
      "type": "SCALAR",
      "bufferView": 3,
      "byteOffset": 11840
    },
    {
      "name": "pipe_entrance_back-Mesh_0_positions",
      "componentType": 5126,
      "count": 364,
      "min": [
        -0.000007000000096013537,
        0.2500010132789612,
        0.10000000149011612
      ],
      "max": [
        0.10000699758529663,
        0.7499989867210388,
        0.6000000238418579
      ],
      "type": "VEC3",
      "bufferView": 0,
      "byteOffset": 28536
    },
    {
      "name": "pipe_entrance_back-Mesh_0_normals",
      "componentType": 5126,
      "count": 364,
      "min": [
        -1,
        -0.9999955296516418,
        -0.9999955296516418
      ],
      "max": [
        1,
        0.9999955296516418,
        0.9999955296516418
      ],
      "type": "VEC3",
      "bufferView": 1,
      "byteOffset": 28536
    },
    {
      "name": "pipe_entrance_back-Mesh_0_texcoords",
      "componentType": 5126,
      "count": 364,
      "min": [
        0,
        0
      ],
      "max": [
        1,
        1
      ],
      "type": "VEC2",
      "bufferView": 2,
      "byteOffset": 19024
    },
    {
      "name": "pipe_entrance_back-Mesh_0_indices",
      "componentType": 5123,
      "count": 1056,
      "min": [
        0
      ],
      "max": [
        363
      ],
      "type": "SCALAR",
      "bufferView": 3,
      "byteOffset": 13952
    },
    {
      "name": "pipe_entrance_left-Mesh_0_positions",
      "componentType": 5126,
      "count": 364,
      "min": [
        0.2500010132789612,
        -0.0007469999836757779,
        0.09985200315713882
      ],
      "max": [
        0.7500010132789612,
        0.1007469967007637,
        0.6001489758491516
      ],
      "type": "VEC3",
      "bufferView": 0,
      "byteOffset": 32904
    },
    {
      "name": "pipe_entrance_left-Mesh_0_normals",
      "componentType": 5126,
      "count": 364,
      "min": [
        -1,
        -0.9999955296516418,
        -0.9999955296516418
      ],
      "max": [
        1,
        0.9999955296516418,
        0.9999955296516418
      ],
      "type": "VEC3",
      "bufferView": 1,
      "byteOffset": 32904
    },
    {
      "name": "pipe_entrance_left-Mesh_0_texcoords",
      "componentType": 5126,
      "count": 364,
      "min": [
        0,
        0
      ],
      "max": [
        1,
        1
      ],
      "type": "VEC2",
      "bufferView": 2,
      "byteOffset": 21936
    },
    {
      "name": "pipe_entrance_left-Mesh_0_indices",
      "componentType": 5123,
      "count": 1056,
      "min": [
        0
      ],
      "max": [
        363
      ],
      "type": "SCALAR",
      "bufferView": 3,
      "byteOffset": 16064
    },
    {
      "name": "pipe_exit_right-Mesh_0_positions",
      "componentType": 5126,
      "count": 364,
      "min": [
        0.25,
        0.8992530107498169,
        0.09985200315713882
      ],
      "max": [
        0.75,
        1.0007469654083252,
        0.6001489758491516
      ],
      "type": "VEC3",
      "bufferView": 0,
      "byteOffset": 37272
    },
    {
      "name": "pipe_exit_right-Mesh_0_normals",
      "componentType": 5126,
      "count": 364,
      "min": [
        -1,
        -0.9999955296516418,
        -0.9999955296516418
      ],
      "max": [
        1,
        0.9999955296516418,
        0.9999955296516418
      ],
      "type": "VEC3",
      "bufferView": 1,
      "byteOffset": 37272
    },
    {
      "name": "pipe_exit_right-Mesh_0_texcoords",
      "componentType": 5126,
      "count": 364,
      "min": [
        0,
        0
      ],
      "max": [
        1,
        1
      ],
      "type": "VEC2",
      "bufferView": 2,
      "byteOffset": 24848
    },
    {
      "name": "pipe_exit_right-Mesh_0_indices",
      "componentType": 5123,
      "count": 1056,
      "min": [
        0
      ],
      "max": [
        363
      ],
      "type": "SCALAR",
      "bufferView": 3,
      "byteOffset": 18176
    }
  ],
  "asset": {
    "generator": "obj2gltf",
    "version": "2.0"
  },
  "buffers": [
    {
      "name": "switch_4",
      "byteLength": 131328,
      "uri": "data:application/octet-stream;base64,"
    }
  ],
  "bufferViews": [
    {
      "name": "bufferView_0",
      "buffer": 0,
      "byteLength": 41640,
      "byteOffset": 0,
      "byteStride": 12,
      "target": 34962
    },
    {
      "name": "bufferView_1",
      "buffer": 0,
      "byteLength": 41640,
      "byteOffset": 41640,
      "byteStride": 12,
      "target": 34962
    },
    {
      "name": "bufferView_2",
      "buffer": 0,
      "byteLength": 27760,
      "byteOffset": 83280,
      "byteStride": 8,
      "target": 34962
    },
    {
      "name": "bufferView_3",
      "buffer": 0,
      "byteLength": 20288,
      "byteOffset": 111040,
      "target": 34963
    }
  ],
  "materials": [
    {
      "name": "Material.004",
      "pbrMetallicRoughness": {
        "baseColorFactor": [
          0.8,
          0.8,
          0.8,
          0.2
        ],
        "metallicFactor": 0,
        "roughnessFactor": 0.36753607199999994
      },
      "emissiveFactor": [
        0,
        0,
        0
      ],
      "alphaMode": "BLEND",
      "doubleSided": true
    },
    {
      "name": "Material.006",
      "pbrMetallicRoughness": {
        "baseColorFactor": [
          0.8,
          0.739672,
          0.739672,
          0.2
        ],
        "metallicFactor": 0,
        "roughnessFactor": 0.36753607199999994
      },
      "emissiveFactor": [
        0,
        0,
        0
      ],
      "alphaMode": "BLEND",
      "doubleSided": true
    }
  ],
  "meshes": [
    {
      "name": "Cube-Mesh",
      "primitives": [
        {
          "attributes": {
            "POSITION": 0,
            "NORMAL": 1,
            "TEXCOORD_0": 2
          },
          "indices": 3,
          "material": 0,
          "mode": 4
        }
      ]
    },
    {
      "name": "pipe_cylinder_front-Mesh",
      "primitives": [
        {
          "attributes": {
            "POSITION": 4,
            "NORMAL": 5,
            "TEXCOORD_0": 6
          },
          "indices": 7,
          "material": 1,
          "mode": 4
        }
      ]
    },
    {
      "name": "pipe_cylinder_side-Mesh",
      "primitives": [
        {
          "attributes": {
            "POSITION": 8,
            "NORMAL": 9,
            "TEXCOORD_0": 10
          },
          "indices": 11,
          "material": 1,
          "mode": 4
        }
      ]
    },
    {
      "name": "pipe_exit_front-Mesh",
      "primitives": [
        {
          "attributes": {
            "POSITION": 12,
            "NORMAL": 13,
            "TEXCOORD_0": 14
          },
          "indices": 15,
          "material": 1,
          "mode": 4
        }
      ]
    },
    {
      "name": "pipe_entrance_back-Mesh",
      "primitives": [
        {
          "attributes": {
            "POSITION": 16,
            "NORMAL": 17,
            "TEXCOORD_0": 18
          },
          "indices": 19,
          "material": 1,
          "mode": 4
        }
      ]
    },
    {
      "name": "pipe_entrance_left-Mesh",
      "primitives": [
        {
          "attributes": {
            "POSITION": 20,
            "NORMAL": 21,
            "TEXCOORD_0": 22
          },
          "indices": 23,
          "material": 1,
          "mode": 4
        }
      ]
    },
    {
      "name": "pipe_exit_right-Mesh",
      "primitives": [
        {
          "attributes": {
            "POSITION": 24,
            "NORMAL": 25,
            "TEXCOORD_0": 26
          },
          "indices": 27,
          "material": 1,
          "mode": 4
        }
      ]
    }
  ],
  "nodes": [
    {
      "name": "Cube",
      "mesh": 0
    },
    {
      "name": "pipe_cylinder_front",
      "mesh": 1
    },
    {
      "name": "pipe_cylinder_side",
      "mesh": 2
    },
    {
      "name": "pipe_exit_front",
      "mesh": 3
    },
    {
      "name": "pipe_entrance_back",
      "mesh": 4
    },
    {
      "name": "pipe_entrance_left",
      "mesh": 5
    },
    {
      "name": "pipe_exit_right",
      "mesh": 6
    }
  ],
  "scene": 0,
  "scenes": [
    {
      "nodes": [
        0,
        1,
        2,
        3,
        4,
        5,
        6
      ]
    }
  ]
}
