{
  "accessors": [
    {
      "name": "Cube-Mesh_0_positions",
      "componentType": 5126,
      "count": 1289,
      "min": [
        0.19978000223636627,
        0.20003800094127655,
        0.05065299943089485
      ],
      "max": [
        0.799780011177063,
        0.8000379800796509,
        0.6506530046463013
      ],
      "type": "VEC3",
      "bufferView": 0,
      "byteOffset": 0
    },
    {
      "name": "Cube-Mesh_0_normals",
      "componentType": 5126,
      "count": 1289,
      "min": [
        -1,
        -0.9999955296516418,
        -0.9999955296516418
      ],
      "max": [
        1,
        0.9999963641166687,
        0.9999955296516418
      ],
      "type": "VEC3",
      "bufferView": 1,
      "byteOffset": 0
    },
    {
      "name": "Cube-Mesh_0_texcoords",
      "componentType": 5126,
      "count": 1289,
      "min": [
        0,
        0
      ],
      "max": [
        1,
        1
      ],
      "type": "VEC2",
      "bufferView": 2,
      "byteOffset": 0
    },
    {
      "name": "Cube-Mesh_0_indices",
      "componentType": 5123,
      "count": 3384,
      "min": [
        0
      ],
      "max": [
        1288
      ],
      "type": "SCALAR",
      "bufferView": 3,
      "byteOffset": 0
    },
    {
      "name": "pipe_cylinder_side-Mesh_0_positions",
      "componentType": 5126,
      "count": 464,
      "min": [
        0.2744100093841553,
        0.09933599829673767,
        0.12292499840259552
      ],
      "max": [
        0.7244099974632263,
        0.9006720185279846,
        0.5768960118293762
      ],
      "type": "VEC3",
      "bufferView": 0,
      "byteOffset": 15468
    },
    {
      "name": "pipe_cylinder_side-Mesh_0_normals",
      "componentType": 5126,
      "count": 464,
      "min": [
        -1,
        -0.9999955296516418,
        -0.9999955296516418
      ],
      "max": [
        1,
        0.9999955296516418,
        0.9999955296516418
      ],
      "type": "VEC3",
      "bufferView": 1,
      "byteOffset": 15468
    },
    {
      "name": "pipe_cylinder_side-Mesh_0_texcoords",
      "componentType": 5126,
      "count": 464,
      "min": [
        0,
        0
      ],
      "max": [
        1,
        0.9900000095367432
      ],
      "type": "VEC2",
      "bufferView": 2,
      "byteOffset": 10312
    },
    {
      "name": "pipe_cylinder_side-Mesh_0_indices",
      "componentType": 5123,
      "count": 1356,
      "min": [
        0
      ],
      "max": [
        463
      ],
      "type": "SCALAR",
      "bufferView": 3,
      "byteOffset": 6768
    },
    {
      "name": "pipe_cylinder_front-Mesh_0_positions",
      "componentType": 5126,
      "count": 380,
      "min": [
        0.566806972026825,
        0.2750059962272644,
        0.12428899854421616
      ],
      "max": [
        0.899599015712738,
        0.7250059843063354,
        0.5758460164070129
      ],
      "type": "VEC3",
      "bufferView": 0,
      "byteOffset": 21036
    },
    {
      "name": "pipe_cylinder_front-Mesh_0_normals",
      "componentType": 5126,
      "count": 380,
      "min": [
        -1,
        -0.9999963641166687,
        -0.9999954700469971
      ],
      "max": [
        1,
        0.9999955296516418,
        0.9999954700469971
      ],
      "type": "VEC3",
      "bufferView": 1,
      "byteOffset": 21036
    },
    {
      "name": "pipe_cylinder_front-Mesh_0_texcoords",
      "componentType": 5126,
      "count": 380,
      "min": [
        0,
        0
      ],
      "max": [
        1,
        0.9900000095367432
      ],
      "type": "VEC2",
      "bufferView": 2,
      "byteOffset": 14024
    },
    {
      "name": "pipe_cylinder_front-Mesh_0_indices",
      "componentType": 5123,
      "count": 1080,
      "min": [
        0
      ],
      "max": [
        379
      ],
      "type": "SCALAR",
      "bufferView": 3,
      "byteOffset": 9480
    },
    {
      "name": "pipe_entrance_front-Mesh_0_positions",
      "componentType": 5126,
      "count": 364,
      "min": [
        0.8999930024147034,
        0.2500010132789612,
        0.10000000149011612
      ],
      "max": [
        1.0000070333480835,
        0.7499989867210388,
        0.6000000238418579
      ],
      "type": "VEC3",
      "bufferView": 0,
      "byteOffset": 25596
    },
    {
      "name": "pipe_entrance_front-Mesh_0_normals",
      "componentType": 5126,
      "count": 364,
      "min": [
        -1,
        -0.9999955296516418,
        -0.9999955296516418
      ],
      "max": [
        1,
        0.9999955296516418,
        0.9999955296516418
      ],
      "type": "VEC3",
      "bufferView": 1,
      "byteOffset": 25596
    },
    {
      "name": "pipe_entrance_front-Mesh_0_texcoords",
      "componentType": 5126,
      "count": 364,
      "min": [
        0,
        0
      ],
      "max": [
        1,
        1
      ],
      "type": "VEC2",
      "bufferView": 2,
      "byteOffset": 17064
    },
    {
      "name": "pipe_entrance_front-Mesh_0_indices",
      "componentType": 5123,
      "count": 1056,
      "min": [
        0
      ],
      "max": [
        363
      ],
      "type": "SCALAR",
      "bufferView": 3,
      "byteOffset": 11640
    },
    {
      "name": "pipe_exit_left-Mesh_0_positions",
      "componentType": 5126,
      "count": 364,
      "min": [
        0.25,
        0,
        0.09985099732875824
      ],
      "max": [
        0.75,
        0.10000000149011612,
        0.6001480221748352
      ],
      "type": "VEC3",
      "bufferView": 0,
      "byteOffset": 29964
    },
    {
      "name": "pipe_exit_left-Mesh_0_normals",
      "componentType": 5126,
      "count": 364,
      "min": [
        -1,
        -0.999995768070221,
        -0.9999955296516418
      ],
      "max": [
        1,
        0.999995768070221,
        0.9999955296516418
      ],
      "type": "VEC3",
      "bufferView": 1,
      "byteOffset": 29964
    },
    {
      "name": "pipe_exit_left-Mesh_0_texcoords",
      "componentType": 5126,
      "count": 364,
      "min": [
        0,
        0
      ],
      "max": [
        1,
        1
      ],
      "type": "VEC2",
      "bufferView": 2,
      "byteOffset": 19976
    },
    {
      "name": "pipe_exit_left-Mesh_0_indices",
      "componentType": 5123,
      "count": 1056,
      "min": [
        0
      ],
      "max": [
        363
      ],
      "type": "SCALAR",
      "bufferView": 3,
      "byteOffset": 13752
    },
    {
      "name": "pipe_exit_right-Mesh_0_positions",
      "componentType": 5126,
      "count": 364,
      "min": [
        0.25,
        0.8999999761581421,
        0.09985099732875824
      ],
      "max": [
        0.75,
        1,
        0.6001480221748352
      ],
      "type": "VEC3",
      "bufferView": 0,
      "byteOffset": 34332
    },
    {
      "name": "pipe_exit_right-Mesh_0_normals",
      "componentType": 5126,
      "count": 364,
      "min": [
        -1,
        -0.999995768070221,
        -0.9999955296516418
      ],
      "max": [
        1,
        0.999995768070221,
        0.9999955296516418
      ],
      "type": "VEC3",
      "bufferView": 1,
      "byteOffset": 34332
    },
    {
      "name": "pipe_exit_right-Mesh_0_texcoords",
      "componentType": 5126,
      "count": 364,
      "min": [
        0,
        0
      ],
      "max": [
        1,
        1
      ],
      "type": "VEC2",
      "bufferView": 2,
      "byteOffset": 22888
    },
    {
      "name": "pipe_exit_right-Mesh_0_indices",
      "componentType": 5123,
      "count": 1056,
      "min": [
        0
      ],
      "max": [
        363
      ],
      "type": "SCALAR",
      "bufferView": 3,
      "byteOffset": 15864
    }
  ],
  "asset": {
    "generator": "obj2gltf",
    "version": "2.0"
  },
  "buffers": [
    {
      "name": "switch_3",
      "byteLength": 121176,
      "uri": "data:application/octet-stream;base64,"
    }
  ],
  "bufferViews": [
    {
      "name": "bufferView_0",
      "buffer": 0,
      "byteLength": 38700,
      "byteOffset": 0,
      "byteStride": 12,
      "target": 34962
    },
    {
      "name": "bufferView_1",
      "buffer": 0,
      "byteLength": 38700,
      "byteOffset": 38700,
      "byteStride": 12,
      "target": 34962
    },
    {
      "name": "bufferView_2",
      "buffer": 0,
      "byteLength": 25800,
      "byteOffset": 77400,
      "byteStride": 8,
      "target": 34962
    },
    {
      "name": "bufferView_3",
      "buffer": 0,
      "byteLength": 17976,
      "byteOffset": 103200,
      "target": 34963
    }
  ],
  "materials": [
    {
      "name": "Material.001",
      "pbrMetallicRoughness": {
        "baseColorFactor": [
          0.8,
          0.8,
          0.8,
          0.2
        ],
        "metallicFactor": 0,
        "roughnessFactor": 0.36753607199999994
      },
      "emissiveFactor": [
        0,
        0,
        0
      ],
      "alphaMode": "BLEND",
      "doubleSided": true
    },
    {
      "name": "Material.002",
      "pbrMetallicRoughness": {
        "baseColorFactor": [
          0.8,
          0.739672,
          0.739672,
          0.2
        ],
        "metallicFactor": 0,
        "roughnessFactor": 0.36753607199999994
      },
      "emissiveFactor": [
        0,
        0,
        0
      ],
      "alphaMode": "BLEND",
      "doubleSided": true
    }
  ],
  "meshes": [
    {
      "name": "Cube-Mesh",
      "primitives": [
        {
          "attributes": {
            "POSITION": 0,
            "NORMAL": 1,
            "TEXCOORD_0": 2
          },
          "indices": 3,
          "material": 0,
          "mode": 4
        }
      ]
    },
    {
      "name": "pipe_cylinder_side-Mesh",
      "primitives": [
        {
          "attributes": {
            "POSITION": 4,
            "NORMAL": 5,
            "TEXCOORD_0": 6
          },
          "indices": 7,
          "material": 1,
          "mode": 4
        }
      ]
    },
    {
      "name": "pipe_cylinder_front-Mesh",
      "primitives": [
        {
          "attributes": {
            "POSITION": 8,
            "NORMAL": 9,
            "TEXCOORD_0": 10
          },
          "indices": 11,
          "material": 1,
          "mode": 4
        }
      ]
    },
    {
      "name": "pipe_entrance_front-Mesh",
      "primitives": [
        {
          "attributes": {
            "POSITION": 12,
            "NORMAL": 13,
            "TEXCOORD_0": 14
          },
          "indices": 15,
          "material": 1,
          "mode": 4
        }
      ]
    },
    {
      "name": "pipe_exit_left-Mesh",
      "primitives": [
        {
          "attributes": {
            "POSITION": 16,
            "NORMAL": 17,
            "TEXCOORD_0": 18
          },
          "indices": 19,
          "material": 1,
          "mode": 4
        }
      ]
    },
    {
      "name": "pipe_exit_right-Mesh",
      "primitives": [
        {
          "attributes": {
            "POSITION": 20,
            "NORMAL": 21,
            "TEXCOORD_0": 22
          },
          "indices": 23,
          "material": 1,
          "mode": 4
        }
      ]
    }
  ],
  "nodes": [
    {
      "name": "Cube",
      "mesh": 0
    },
    {
      "name": "pipe_cylinder_side",
      "mesh": 1
    },
    {
      "name": "pipe_cylinder_front",
      "mesh": 2
    },
    {
      "name": "pipe_entrance_front",
      "mesh": 3
    },
    {
      "name": "pipe_exit_left",
      "mesh": 4
    },
    {
      "name": "pipe_exit_right",
      "mesh": 5
    }
  ],
  "scene": 0,
  "scenes": [
    {
      "nodes": [
        0,
        1,
        2,
        3,
        4,
        5
      ]
    }
  ]
}
